/* XPM */
static char *_e5a5e6dc9a74371e78a798af5429249yiD5vWTYIp7ESvbn[] = {
/* columns rows colors chars-per-pixel */
"64 64 92 1 ",
"  c black",
". c #040404",
"X c #060606",
"o c gray3",
"O c #090A09",
"+ c gray5",
"@ c #101010",
"# c #131313",
"$ c gray8",
"% c #151515",
"& c gray9",
"* c #181818",
"= c #191919",
"- c gray11",
"; c gray12",
": c #232323",
"> c gray14",
", c #252525",
"< c #282828",
"1 c #2C2C2C",
"2 c #313131",
"3 c #353535",
"4 c gray22",
"5 c #3A3A3A",
"6 c #3C3C3C",
"7 c gray24",
"8 c #404140",
"9 c gray26",
"0 c gray27",
"q c #494949",
"w c gray31",
"e c #505050",
"r c #555555",
"t c gray34",
"y c #5A5A5A",
"u c #5D5D5D",
"i c gray38",
"p c #656565",
"a c #686868",
"s c #6A6A6A",
"d c gray42",
"f c #6D6D6D",
"g c gray44",
"h c gray45",
"j c #747474",
"k c #767676",
"l c gray48",
"z c #7B7B7B",
"x c #7E7E7E",
"c c #808080",
"v c gray52",
"b c #8B8B8B",
"n c gray55",
"m c #939393",
"M c #979797",
"N c #989898",
"B c gray61",
"V c gray64",
"C c #A4A4A4",
"Z c #A7A7A7",
"A c gray66",
"S c gray67",
"D c #AFAFAF",
"F c gray69",
"G c #B2B2B2",
"H c #B4B4B4",
"J c gray71",
"K c #B7B8B7",
"L c #B9B9B9",
"P c #BBBCBB",
"I c #BCBCBC",
"U c gray",
"Y c gray75",
"T c #C0C0C0",
"R c gray76",
"E c #C3C4C3",
"W c gray77",
"Q c #CACACA",
"! c #CDCDCD",
"~ c gray82",
"^ c #DADADA",
"/ c gray87",
"( c gray89",
") c #E4E4E4",
"_ c gray91",
"` c #EEEEEE",
"' c #EFEFEF",
"] c #F1F1F1",
"[ c gray96",
"{ c gray98",
"} c gray99",
"| c white",
/* pixels */
"llllllllllllllllllllllllllllllllllllllllllllllllllllllllllllllkf",
"SSSSSSSSSSSSSSSSSSSSSSSSSSSSSSSSSSSSDSSSSDSSSSSSSSSSSDSSSSSSDZR/",
"RRRRRRRRRRRRRRRRRRRRRRRRRRRRRRRRWWWRRRRRRRRRRRRRRRRRRRRRRRRREU(|",
"UUUUUUUUUUUUUUUUUUUUUUUUUUUUURWUGGKRRLUUUUUUUUUUUUUUUUUUUUUUUJ/|",
"URUUURUUURURUUURRUUURURUUURURJce,:2pZWUUUURUURURUUUURUUUURURRL/|",
"UURUUURUUUUURUUUUUURUUUUURURG6    O  BWUURUUUUUUUUURUUURUUUUUL/|",
"UUUUUUUUURUUURURRURUUURUURUWs 1  , ; 5LRUUURURUURURURURUURUURL/|",
"RURURURUUURUUUUUUUUUURUUUUUL9  s_[J : BWUUUUUURUUUUUUUUUUURUUL/|",
"URURURURURUUUUURRUUUUURUUURG1+ ^||[2  MWUUUUUUUUURURURURURUURL/|",
"UUUUUUUUUURURUUUUUURURUUUURJ5O U||`%O NWURURRURUUUUUUUUUUURUUL/|",
"URUUURUUUUUUURURRURUUUUUURURs X%SQx  ;GRUUUUUUURURUUURUUUUUURL/|",
"UURUUURURURUUUUUUUUUURURUUURS#     ; vWURUURRUUUUURUUURURURUUL/|",
"UUURUUUUURURUUURRUUUURURUURRLp =,,; OSQRUUURUUUUUUURUUUUURURRL/|",
"RUUURURUUUUURUUUUUURUUUUUWUn, O    X 1cJWUUURURURUUURURUUUUUUL/|",
"URURUUURURUUURURRURUURUURSw            1NWRUUUUUURURUUURURUURL/|",
"UUUURUUUUURUUUUUUUUUUUUWm  =+        #;  fLWUURUUUUURUUUUURUUL/|",
"URUUUUURUUUUURUUURUUURUk X%    O,<% X  += wDWUURUUURUURURUUURL/|",
"UURURUUURURUUURUUURURUf %X    O    #     ; OSRUURUUUURUUUUURUL/|",
"UUUUURURUUURUUUUUUUUUf ;X    O 9BZk #     ; ,GRUURURUUUURURURL/|",
"RURUUUUURUUURURURUUWb ;      : s||R 2      ; rPRUUUUURURUUUUUL/|",
"URURUUURUUUUURURUURD OX        y[|L         : cWUUUURUUUURURRL/|",
"UUUURUUURURUUUUURUWk =     X qwc{|W1i% X    X ,GRUURUUURUUUUUL/|",
"URUUURURUUURURUUURJ: O     = !|[||{{]y %     = bWUUURURUURUURL/|",
"UURUUUUURUUUUURUURN %      ; /|||||||i =     % sRRUUUUUUUURUUL/|",
"UUURUUUUUUURUUUUUWn =      # D!~||_QQq +     # 9LRUUURURURUURL/|",
"RUUURURURUUURURUUWc =       O  w[|L   X      # 5LRUUUUUUUURUUL/|",
"URURUUURURURUUURUWb =        , s{|U 3        # qLRURURUUUUUURL/|",
"UUUURUUUUUUURUUUUWM #X       % i[|L <        % iRUUUUURURURUUL/|",
"URUUURUUURUUURUUURG= X         :pfw O        % bWUUUUUUUURURRL/|",
"UURUUURUUURUUURUUURi %     +##%    =##+      O GRUURRURUUUUUUL/|",
"UUUUUUUUUUUUUUUURUWN =   +;            ;=   = pRUUUUUUURURUURL/|",
"RURURURURURURURUUUURi = #  3wwwwwwqwwe6  % + =GWUUURRUUUUURUUL/|",
"URURURURURURURURUUURD  ; q^[{{[{[{{[{{])m ;; vWUUUUURUUUUURUUL/|",
"UUUUUUUUUUUUUUUURUUURb , s`|||||||||||||S , pURUURURUUURURUURL/|",
"URUUURUUURUUURUUUUURURs =  ilkvvvbvvllk5 % 9LRUURUUURURUUUUUUL/|",
"UURUUURUUURUUURURUUUUED  %              O; xWURUUUURUUUUURURRL/|",
"UUURUUUUUUURUUUUURUUURZ + 6nZSZSZSSSZZBi # eURUUUURUUURURURUUL/|",
"RUUURURURUUURURUUURUURc  s||||||||||||||J : GRUUURUUURUUUUUURL/|",
"URURUUURURURUUURURUURRr  0U((```````)(^Uf : MRUUUUUUUUUUUURUUL/|",
"UUUURUUUUUUURUUUUUUURS X+   ;9996999;    +% kWUUURURURURURUURL/|",
"URUUUUURUUUUURUUURUUWv = +:#         +=,= + eUUURURUUUUUUURUUL/|",
"UURURUUURURUUURUUUUUWc :;%X O+O#++++OX  #;: 9URUUUUURURUURUURL/|",
"UUUUURURUUURUURUUUUURLu                X    BWUUUURUUUURUUUUUL/|",
"RURUUUUURUUUUUUURUUUURUBxi1             ehnJRUUUUUUUUUUUURURRL/|",
"URURUUURUUUURWRRRRWWRRRLSl, X         O uNJRRRRWWRRRWWRUUUUUUL/|",
"UUUURUUURURRGmkpskcbxfr,               X   qplbbxkpixBURUURURL/|",
"URUUURURUURm            #%X             #=            sLRUURUL/|",
"UURUUUUUUWn  ;=========#         X        X%=========; rURUURL/|",
"UUURURUURD X#                   ##+                   : lWUURL/|",
"RUUUUUURLw %                  +#   %                   # ZRUUL/|",
"URURURURLq %              XO%=  kN   =%O               # BWURL/|",
"UUUUUUUUWD  X       OO#=;%#   2MWWGs    %=;%OO        = xWURUL/|",
"URUUURUUUWv ;  +%=%O        unJWRURRDcr        #==#O % 9LUURRL/|",
"UURUUURUURUy :#     <1rhknVDRWRUUUUUWWUDBxkr5<      =# ZWUUUUL/|",
"UUUUUUUUUURJ=  2fbNZLLUWWWWWUUUUURURUURRWRWULJDVBvi   bWURUURL/|",
"RURURURUUUURGwlLWWWRRRUUUUUUUUURUUUUUUUUUUURRYRWWWWZ1nRUUURUUL/|",
"RURURURUURUUWLUWUUUUUURUUUUUUUUUURRUUUUUURURUUUUUURRKRUUURUURL/|",
"UUUUUUUUUURUUUUUUUUUURUUURURURURUUUUURURUUUUUUYYUUUURUURUURUUL/|",
"UUUUUUUUUUUUUURUUUUUUURURUUURUUUUURUUUUUURRURUUUUUUUUUUUURUURL/|",
"RRRURRRRRRRUURURRURRRURUURURURURRUURRRRRURURRURYURURURURRUURRL/|",
"LLLULULLULLLLLULLLULLLLLLLULLLULLLLULLLUYLLLULLULLULLLULLLLUUJ/|",
"`````_```````````_```````````_`````)````)``````)`````_`````__](~",
"||||||||||||||||||||||||||||||||||||||||||||||||||||||||||||||(J",
"|{||||{|||{||||||||||||{|||||||||||||{|||{||||||||||||||||||||(L"
};
