/* XPM */
static char *_f7a87255ae84cb1d1670f89ab92742fDR6xcXxUcVOqPqp8[] = {
/* columns rows colors chars-per-pixel */
"64 64 84 1 ",
"  c black",
". c gray1",
"X c #040404",
"o c #070707",
"O c gray3",
"+ c #0B0B0B",
"@ c gray6",
"# c #101010",
"$ c gray8",
"% c #181818",
"& c #1C1C1B",
"* c gray11",
"= c #1D1D1D",
"- c gray12",
"; c #222222",
": c #252525",
"> c #2A292A",
", c gray17",
"< c #2F2F2F",
"1 c #323232",
"2 c #373737",
"3 c gray22",
"4 c gray24",
"5 c gray25",
"6 c #464646",
"7 c #494949",
"8 c #4C4C4C",
"9 c #505050",
"0 c #535453",
"q c #565656",
"w c #5A5A5A",
"e c #5B5B5B",
"r c #5D5D5D",
"t c gray39",
"y c #656665",
"u c #676767",
"i c DimGray",
"p c #6C6C6C",
"a c #6D6D6D",
"s c gray45",
"d c #747474",
"f c #7B7B7B",
"g c #7E7E7E",
"h c #808080",
"j c gray53",
"k c gray54",
"l c gray56",
"z c #909090",
"x c #909190",
"c c #959595",
"v c #979797",
"b c #989898",
"n c #9F9F9F",
"m c #A2A2A2",
"M c gray65",
"N c #AAAAAA",
"B c #AEAEAE",
"V c #B2B2B2",
"C c gray71",
"Z c #B9B9B9",
"A c #BBBCBB",
"S c gray74",
"D c gray75",
"F c #BFC0BF",
"G c #C0C0C0",
"H c gray76",
"J c #C3C3C3",
"K c gray77",
"L c gray78",
"P c gray79",
"I c gray80",
"U c #D2D2D2",
"Y c LightGray",
"T c #D5D5D5",
"R c #D8D8D8",
"E c #DDDDDD",
"W c #E2E2E2",
"Q c #E7E7E7",
"! c #E9E9E9",
"~ c #EDEEED",
"^ c #F1F1F1",
"/ c gray97",
"( c #F8F8F8",
") c white",
/* pixels */
"ncbccbcbbccbcbbcccbbcbbbcbbccbbcbbcbcbbccbbcbbcbcbbccbbcbbcbcbbb",
"TSKHHHHHHHHHHHHHHHHHHHHKHHHHHHHHHHHHHHHHHHHHHHHHHHHHHHHHHHHHHHHK",
"UZHSSHSSSSHSSSSHSSSSSSSSHSSFSSSSSSHSSSSHSSSSSSHSSSSHSSSSSSHSSSSK",
"UZHSSSHHHSSHHSHSHSHSHSHSSSSHHSHSFSSHHSHSHSHSFSSHHSHSHSHSFSSHHHSJ",
"UZHSSHSSSSHSSSHSHSHHHSSHHSHSSHSHHSSHSSHSHSSHSHHSSHHSHSSHSHHSSHSH",
"UZHSHSHSHHSSHSSHSHSSSHSSHSSSHSHSSHSSHSSHSHHSHSSHSSSSHSHSHSSHFSSK",
"USHSSSHHSHSHHSSSSSSHSHSHSSHHSHSSSHSHHSSHSSSSSSSSHSSHSSHSSSSSSSSK",
"UZSHSHSSSSHSSHSKKHHSSSSHSKZNKSSHHSSHSSHSHSHHSHHSSHHSHSSHSHHSHHSK",
"UZHSHSSHHSSHSSHVNNCHKHSSHZ9 kKHSSSHSSHSSHSSHHSHHHSSHSHHSHSSHSSSK",
"UZHSSHSSSHSHHSKk  2ynZHHHi $ hHSSHHSSHHSSHHSSSSSSHSSHSSHHSHSSHSK",
"UZSHSHSHSHSSHSKb $   4lHx =#% vKSHSHHSSHSSSSSHHSSHSHSSSSSSHSSSSK",
"UZHSHSSHHSSHSSHN +@$#  q3 @ % wSSSSSSSHSHHSHHSSHHSSHSHHSHSSHHHSK",
"USHSSHSSHSSHHHHB  o  #%  +    +VKHSSSSSFSHHSSHSSSSHSHSHHSSHSSSSK",
"UZHSHSSHSSHSSSHB  +   o$+    $ zKZHKJHSHSSSHHSHSSHHSSSSSHHSSHSSK",
"UZHSHSSHHSHSHSHV  +          o 1q8wjmHKSSHSSSSHHHSSHSHHSSHSHHSSK",
"UZHSSHSSHSSHSSHn #            :=     rMJHSHSSHSSSHSSHSSHSSHSSHSK",
"UZHSHSSHSSHSSSKh %           +    <>   hHHSHSSSHSHSSHSSHSSHSSHSH",
"USSHSHHSHSSHSHZ6 @          + yhi7  :%o rZHSHSHSHSSHSHHSSHSHHSSH",
"UZHSSSSSSHHSSKm $ o$%+     $ 3())^Pa #=$ qZHSSSHSHHSSSSSHHSSHSSK",
"UZHSHHSHSHSSSKs #$;  #@    + +NR/)))B  ;= 9ZHSSSSSHSHSHHSSHSSHSK",
"TZHSSSHSSHSHHB  ;  +<  +    o   8S())Uo == dKSHHHSSHSHHSSSHSSHSH",
"UZSHHSSHHSSSKk > 2PQ~H o+     :;  y!))W< =# xKSSSHSHSSSSHHSSHSSH",
"UZHSHSSHHSSHA6  9~)))!  #       -> 3R))W  ;  VHSSHSSHSSHSHSHHSSK",
"UZSHSSHSSHSKc : T)/))j ;          >  I))U =% wHHHSSHSHHSSSHSSHSK",
"USHSHSHHSSSS9  t))))c ;            -  Y))M :$ kKSHHSSHHSHSSHSSSK",
"UZHSSSSSHSHn ; i))!l :              =  E))h < :CHSSSHSSHSHSHHSSK",
"UZHSSHHSHSHw %  ln$ :              . > i()!  ; kKSSHSSSSSHSSHSSK",
"UZHSHSSHSHN oo     :                  < b))Z > 2CHSHSHHSHSSHSHSK",
"UZHSHSSSSKf %   :>@                    = E)(e > xKSHHSHHSSHSSHSH",
"USSHSHHSHC> o                          ; g()J : 7SHSSSSSHHSSHSSH",
"UZHSSHSSKk %                           += T)/0 ; MHSSHHSSHSHHSSK",
"UZHSHSSHC3 #                            : b))C < hKSHSSHSSHSSHSK",
"UZHSSHSKn $                             @  Q)~:  9SHHSHSHSHSHSSK",
"UZHSHSSHy %               o#o            > Z))k ; NKSSSHSHSSSHSK",
"UZSHSSHV  @              ##  o           % g))K < xKSSHSSSHSHSSK",
"UZHSHSKk >+o            =  w4 +          @ <~)Q $ fKSHSSSHSHSHSK",
"USHSSHS8    o         o$ 3nZ5 @          o$ T)(t  9SFSHSHSHSSSSK",
"UZHHSKB  NU> #       +o dCPN @            : V))b =:ZHFSHSHSHSHSK",
"UZAHSKl x))4 =      +o xKSHj $            ; b))C : NHSHSSSHSHSSK",
"UZHASHs H)N =       $ xKSHV> @            ; i))K > bKSSHSHSSSHSK",
"UZHSSHb df  o      = fKSSHs =             = 0/)Q % jHSHSHSHSSSSK",
"TZDHHSHi  %       # 8ZHAKn #              #  W)!++ sKSSHSHSHSHSK",
"UZHSSSHC9 #%#+$   # MKZHC4 #              @@ E)~2  aKSSSSSHSHSSK",
"UZHSSHSKZa      += aHSSHa %               +% R)(a  yHHSHSHSHSHSK",
"UZSHHSHSHHBjq:gq o=VKSKx &                o= T))g  9SSSSHSHSSSSK",
"UZHSSHHSSSHKHZHh  zHSHV= +                 ; H))f  8SHFHSHSSSHSK",
"UZHSSSSSSHSSSHHZxcSHSKy %                  : S))g  8SSSSSSHSHSSK",
"UZHSHHSHSHSHSSSHKKHSKb $o                  ; H))g  2CHHHSHSHSHSK",
"UZHHHSHSDSHSDSHSSSSHS8 $                   : C))h o1CHSSSHSSHSSK",
"UZHSSSSHSHSHSHSSHSSKM $                    > N))g  3CHSHHSHSSHSH",
"UZHSHSHSHSSSDSHSHSSKg %                    = f)/4  8SHSSSSHHHSHH",
"UZHSSHSDSHSHSHSHSHSS9 #  o          o       @ nl ; 8ZHSHSHSSSHSH",
"UZSSHSHSHSSSHSHSFSHB  +oo oo oooooo +o  o+ o $  $# qSHSSSSHSSHSH",
"USHHSHAHSHSHSHSSSSKM #  o         o    o      >; $ yHSHSHHSSHSSH",
"UZHSSSHSHSHSDSHSHSKc                               yHSHSSHSHHSHH",
"UZHSSHSHSDSHSHSHSSHCNNNNNNNNNNNNNNNNNNNNNNNNNNNNNNNVHSSHSSHSSHSH",
"UZHSHSSSHSDSHSHSHSSHKKKKKKKKKKKKHKKKKKKKKKKKKKHKKKKHSHHSHSSHSSSK",
"UZHHSHSHSHSHSHSSSHHSSSSSSSSSSSSSSSSSSSSSSSSSSSSSSSSSHSSHSHSHHSSH",
"UZSSHSHSHSHSDSHSSSSSFSHHHSSSHSHSSHSSSHHSSSSSHSSHHSSHSSSSSHSSHSHH",
"UZHHSDSHSSSHSHSHHSHHSHSSSHHSHSSSHSSHSSHSHSHHSHHSSHSHSHHSHSSHSHSH",
"USHSHSHSHSSSHSHSSHSSHSSHSHSSHSSHSHHSHSSHSHSSHSSHSHSSHSHHSSHSSHSH",
"UZHSSHSDSHSHSHSSHSSHSSHSHSSHSHHSHSSHSHHSHSSHSSHSHSSHSSSSHHSSHSSH",
"UZHSSSHSHSHSDSHSHSSHHSHSSHHSSSSSSSSSSSSSHSSHHSHSSHHSSHHSSHSHHSHH",
"UZHSSHSHSDSHSHSHSHSSHSSHSSHSHSHHSHHSHHSHSHSSHSSHSSHSHSSHSSHSSHSH"
};
