/* XPM */
static char *_270f68fb2bb47a58090b22f08139fa9TFeTnRw9aQt5IZ1M[] = {
/* columns rows colors chars-per-pixel */
"64 64 88 1 ",
"  c black",
". c #040404",
"X c gray2",
"o c gray3",
"O c gray4",
"+ c #0B0B0B",
"@ c #0C0C0C",
"# c #131313",
"$ c gray8",
"% c #191919",
"& c #1B1B1B",
"* c gray12",
"= c #202020",
"- c #252525",
"; c #272727",
": c #2A2A2A",
"> c #2D2D2D",
", c #313131",
"< c #373737",
"1 c gray22",
"2 c #3A3A3A",
"3 c gray23",
"4 c #3E3E3E",
"5 c #434343",
"6 c #444444",
"7 c gray28",
"8 c #484848",
"9 c #4E4E4E",
"0 c #535353",
"q c #565656",
"w c #5B5B5B",
"e c #5D5D5D",
"r c gray39",
"t c gray40",
"y c #686868",
"u c DimGray",
"i c gray42",
"p c #6D6D6D",
"a c #727272",
"s c #777777",
"d c #797979",
"f c #7B7C7B",
"g c #7C7C7C",
"h c gray51",
"j c #868686",
"k c gray53",
"l c gray54",
"z c #8E8E8E",
"x c #909090",
"c c #939393",
"v c gray59",
"b c #989898",
"n c #9B9B9B",
"m c #9E9F9E",
"M c #A0A0A0",
"N c gray65",
"B c gray66",
"V c #AFAFAF",
"C c #B1B1B1",
"Z c #B7B7B7",
"A c gray72",
"S c #B9B9B9",
"D c #BCBCBC",
"F c gray",
"G c gray75",
"H c #BFC0BF",
"J c #C0C0C0",
"K c #C3C3C3",
"L c #C3C4C3",
"P c gray77",
"I c #C8C8C8",
"U c gray80",
"Y c gray82",
"T c gray83",
"R c #DADADA",
"E c gainsboro",
"W c #DFDFDF",
"Q c #E1E1E1",
"! c #E4E4E4",
"~ c gray90",
"^ c gray92",
"/ c #ECECEC",
"( c gray93",
") c #F1F1F1",
"_ c #F4F4F4",
"` c #F6F6F6",
"' c #F9F9F9",
"] c white",
/* pixels */
"ddddddddddddddddddddddddddddddddddddddddddddddddddddddddddddddda",
"BBBBNNBBBBBBBBBBBBBBBBBBBBBBBNBBBBBBBBBBBBBBBBBBBBBBBBBBBBBBBBNI",
"KKKKKKKKPKKKKKKKKKKKKKKKKKKKKKKKKKKKKKKKKKKKKKKKKKKKKKKKKKKKKKK`",
"FFFFFFFFFFFFFFFFFFFFFFFFFFFFFFFFFFFFFFFFFFFFFFFFFFFFFFFFFFFFFFF(",
"FKFFKFFKFFFFFKFFFFKFFFKFFHKFFFFFFFFFFHFKFFFFFKFFFFKFFFFFFKFFFFF)",
"FFFFFFFFFFKFHFFFFFFFKFFFKFFFFFPKKPKFHFFFFKKFFFFKFHFFKFKFFFFKFHF)",
"FFFKFFFFKFKFFKKFFKFFFAFFFFKFKFnausNPFFFFFFFFFFFFKFFFFFKFFFFFFFA)",
"FKFFKFFKFFFFFFFFFFPPPPKFFFFFKd     nKFFKFFPKKPLFFFKFFFFFFKFFKFF)",
"KFFKFFKFFKFFFFFFKKMaplZKFFFKv  kFu -ZHFFFKNdpdNPFKFFFFFFFFKFFKA)",
"FFFFKFFFFFKFFKFKFs    -NKFFKt p']^5 nPFFKk     nKFFFFKFFKFFFFFF)",
"FFFFFFFFFFFFFFFKk  -6  6FFFFe Z]`]h lPFKm   wO  VKFKFKFKFFFFKFA)",
"KFFKFFKFFFFFFKFA6 d('Z  mPFKp p`](3 MKFKp -Y]Q4 gKFFAFFFFFKFFFK)",
"FFKFFFFFPPPPKFKV, T]]`8 zPKKn  umt 5AFKZw z]]]z tHFFKPPPKFFFFKA)",
"FFFFKFFKNkhxZKFZ3 P]]`< xPFKZ,     sPFFKt d]]]k pKFPVkhlCKFKFFF)",
"KFFKFFKk    4CKFt 9URn  MPFFPp :>- mPFFKs  BWC  vPKvO   :NPFKFA)",
"FFFFFKz  4rO 0FKV4     %CPAFPl $   CPFFKk $    pFPM  -w  6AFFFF)",
"FFFFKF9 t^]P  nKKZ6 -- :ZKFFKz $# <ZKFFPx %*- tFKPp w!]I: zPFFA)",
"KFFFKZ8 Z]]'e fPFPv $X $CKFFKn #$ 3ZKFFPl $ X VKFA0 M]]]s sKFKF)",
"FFKFPA9 B]])5 lPFKZ> $@ MPFAKM O$ 3ZFFFKa $% rPFFFw z]]'w dPFPF)",
"FFFFFKu ,F!n  nPFFAq %$ zPFFPn #$ 3ZKFFF8 @% hPFFKa $AQn  vPFFA)",
"FFFFFKB     $ MPFFPu $= tKFFPz $@ *CPFKVX @$ vPFFPg      wFKFFF)",
"FKFFFFPm  **# MPFFPs %# 3AKFPz %O  VPAPv $X$ MPFFPd *=% qZKFFFF)",
"FKFKKFFLCe #% lPFFPh % $ mPFPh %X@ NLFKp *X@ NPFFFw $X kKFFFFFA)",
"FFFFFFFFIx $# 0FFAPh % % pKFPe % % zKFZ: @ # NPAPN X# *ZKFFFPFF)",
"FFFFFFKAPM $ % nPAPd % X $ZKA8 % % kKKx % X# MPFPa %@ ,ZKFKFFKA)",
"FKKFFFFFPB O @ 3APKp $  $ zPC% @ $ eFFw # X# NKPm @ $ 0FFFFFFFF)",
"FFFFFKFFKVX X % sKKu %  $ 9KN @X O 3KB O X $ vPA3 # % aKFFFFLFA)",
"FKFFHFFFFF6 @ X$ nL9 $  X@ Vv %  X  Ch %   % lIt *  $ hPFFKFFFF)",
"FKFFKFFKFKr $  O Om0 $   * as %   X k3 #   % kl %   $ nKFFFFFKA)",
"FFFFFFFFFKh %   O %- X      - X    X#      X ,     X  VKAKFFFFF)",
"FFFKFFFFFKm $    @  X      X        XX      X XX   O 5AKPFFPPFA)",
"FKFFKFFKFKC% @    X         X                XX    $ uPFFFFFFFF)",
"FFFFFKFFFFFw %                                     % lPFFFFFFFF)",
"FKFFFFFKKFPd %                                     # NPFFLFKKFA)",
"FKFKFFFFFFLm @X       O$*::-:---:--::-:-*@O       $ 4AKFFKFFFFF)",
"FFFFFKFFFFKZ: O    X=:O                   #-=     % tKFFFFFFFPA)",
"FFFFKFFKFFKFq #   $    OqgglzzlmNmlzzggs9    #O   * hPFFFFKFFFF)",
"FKKFFFFFFFFKl %  $  xK!()]]]]]]]]]]]]]]])^QKk  # O  BKFKKFFFPFA)",
"FFFFFFFFFFFFFw %$ 0!]]]]]]]]]]]]]]]]]]]]]]]]]TX X% zPFFFFFFFFFF)",
"FKFFKFFKFFKFKZ5 - p']]]]((!!!!YUUUQ(!!^)`]]]](, = aKKFFFFFPFFPA)",
"FKFFKFFKFFKFFPB O$ 8kggs4=            =0wddhh< = 9FKFFFFKFFKFFF)",
"FFFFFFFFFFFFKFPz $@           $%%%X           $ %VKFFFKFFFFFFFF)",
"FFFKFFFFKFKFFFFKu %$%*%%$$@@O@OXXXOO@@#$$%%**## nPFFFKKFFFFFFFA)",
"FKFFKFFKFFFFFFFPZ= @           O@@@X         % pKFFFFFFFKFFKPFF)",
"FFFFFFKFFFKFFFFFKk $  @%=::=%%$    $%=-:-*# X  BKFFKFFFFFKFFFFF)",
"FKFFFFFFFKFFFFFFKB O**                     *= 0FFFFFFKKFFFFKFFF)",
"FKFKKFFKFFKFFFKFPM %  4snAKPTTR^(((RTUKFNh6   3AKFFFFFFFFFFFFFA)",
"FFFFFFFFFFFFFKFFLa  hU(]]]]]]]]]]]]]]]]]]]`Ur  nKFFKFFKFFKFFPFF)",
"FFFFFFFFFFFFFFFKC> 9]]]]]]]]]]]]]]]]]]]]]]]]^  pKFFFKFFFKFKFFFF)",
"FKKFKFFKKFKFFKFKv  >P(^WIPFFCmzghvMAAFKIYW^)C @%VKFFFFFFFFFFFFF)",
"FFFFFFFFFFKFFPFKu *                           * hPFFKFFFKFFFKFA)",
"FKFFFKFFFFFFFFFA6 #O*  #=-:::==%*==:::--%#  % # eKFFFFFKFFFKFFF)",
"FKFFKFFKKFFKFFKC- X  @@X                 X@@  O qFFFFFFFFFFFFFF(",
"FFFFFFFFFFFFFFKC  =$$XX                   XXO#= 5FFKFKFKFKFFFKF)",
"FFFKFFFFFFFFFFFFz*    O$%%%$%%$%$%$%%$%%%$@    >mKFFFFFFKFKFKFA)",
"FKFFKFFKKFFKFFKFPCvs8X                      3rzZKFFFFKFFFFFFFFF)",
"FFFFFKFFFFKFFKFFFHPPFVMzhsu08986686weushkznVZKKKFFKFFFKFFFFFKFF)",
"FKFFFFFKFFFFFFFFKFFFFKPPPKKFFFFFFFFFKFPPPPPPKFFFKFFFFFFFFKFKFFA)",
"FKFKFFFFKFFFFKKFFFFFFAFAFFKFKFKFFKFFFFFFFFFFFFFKFFFFKFKFFFFFFFF)",
"FFFFFKFFFFKFFFFFFFKFFKFLFFFFFFFFFFFFFFKFFFFFFFFFFFFKFFFFFKFFFFF)",
"FFFFKFFKFFKFFFFFFFFFKFFKFFFFFKFFFFFFFKFFFFFFFKFKFFFKFFKFFFFFKFF)",
"FKKFFFFFKFFFFKKFKFFKFFFFKFFKFFFFFFKFHFFFKFKFFFFFKFFFFKFFFKFKFFF)",
"FFFFFFFFFFFFFFFFFFFFFFFFFFFFKFFKKFKFFKKFFFFFFFFFFFFFFFKFFFFFKFA)",
"FKFFKFFKFFKFFKFFFKFFKFFKFFKFFFFFFFFFFFFFFFKFKFFFKFKFFFFFFKFFFFF)"
};
