/* XPM */
static char *_fde6d614ce74c1adc4cc3009213d74aaK9ITCNTWlFAZGRg[] = {
/* columns rows colors chars-per-pixel */
"64 64 68 1 ",
"  c black",
". c gray1",
"X c #040404",
"o c gray3",
"O c gray4",
"+ c #0C0C0C",
"@ c gray6",
"# c gray7",
"$ c #151515",
"% c gray9",
"& c #181818",
"* c #1B1B1B",
"= c #1E1E1E",
"- c #222222",
"; c #272727",
": c gray16",
"> c #2C2C2C",
", c gray21",
"< c #3A3A3A",
"1 c #3B3B3C",
"2 c #3C3B3C",
"3 c #3C3C3C",
"4 c #434343",
"5 c #494949",
"6 c gray30",
"7 c #555555",
"8 c #565656",
"9 c #5F5F5F",
"0 c gray39",
"q c gray40",
"w c #686868",
"e c DimGray",
"r c gray43",
"t c gray44",
"y c gray49",
"u c gray50",
"i c #808080",
"p c gray53",
"a c #898989",
"s c #8E8E8E",
"d c #909090",
"f c #939393",
"g c gray59",
"h c #9A9A9A",
"j c #9D9D9D",
"k c #9F9F9F",
"l c gray63",
"z c gray64",
"x c gray67",
"c c #AEAEAE",
"v c gray69",
"b c #B2B2B2",
"n c #B3B3B4",
"m c gray71",
"M c gray73",
"N c #BBBBBB",
"B c gray75",
"V c #C0C0C0",
"C c gray77",
"Z c #C6C7C6",
"A c #CBCBCB",
"S c #CDCDCD",
"D c gray90",
"F c gray91",
"G c #EFEFEF",
"H c #F1F2F1",
"J c gray98",
"K c #FEFEFE",
/* pixels */
"BBBBBBBBBBBBBBBBBBBBBBBBBBBBBBBBBBBBBBBBBBBBBBBBBBBBBBBBBBBBBBBB",
"BBBBBBBBBBBBBBBBBBBBBBBBBBBBBBBBBBBBBBBBBBBBBBBBBBBBBBBBBBBBBBBB",
"BBBBBBBBBBBBBBBBBBBBBBBBBBBBBBBBBBBBBBBBBBBBBBBBBBBBBBBBBBBBBBBB",
"BBBBBBBBBBBBBBBBBBBBBBBBBBBBBBBBBBBBBBBBBBBBBBBBBBBBBBBBBBBBBBBB",
"BBBBBBBBBBBBBBBBBBBBBBBBBBBBBBBBBBBBBBBBBBBBBBBVNBBBBBBBBBBBBBBB",
"BBBBBBBBBBBBBBBBVBVCCCCCCBBBMBCCCCCCCCCVBBBBVCCCCCCVBBBBBBBBBBBB",
"BBBBBBBBBBBBBBBBBVcpaaapsBVBBVfpaaaaaapjCBBVBapaaapxCBBBBBBBBBBB",
"BBBBBBBBBBBBBBBBCb3      tBBBi          gVBBr      ;xCBBBBBBBBBB",
"BBBBBBBBBBBBBBBVb3 :=&=-$ cCM3 ;&-===&, 9VCn $-===; :bVBBBBBBBBB",
"BBBBBBBBBBBBBBVVh -      $lMc5 O      $ 0mMl#      & kCNBBBBBBBB",
"BBBBBBBBBBBBBBBCh #X   X  #@#       X   X#@@  X   O@ lCBBBBBBBBB",
"BBBBBBBBBBBBBBBCh $                               X@ zCBBBBBBBBB",
"BBBBBBBBBBBBBBBVh $       XOX            OXX      X# zCBBBBBBBBB",
"BBBBBBBBBBBBBBBCh #                               X@ lCBBBBBBBBB",
"BBBBBBBBBBBBBBBCh $                               X# lCBBBBBBBBB",
"BBBBBBBBBBBBBBBCh =                               O& kCNBBBBBBBB",
"BBBBBBBBBBBBBBBBM0 =                              = eMVBBBBBBBBB",
"BBBBBBBBBBBBBBBBVB0 =                            & eBVBBBBBBBBBB",
"BBBBBBBBBBBBBBBBBBB0 =                          = eBBBBBBBBBBBBB",
"BBBBBBBBBBBBBBBBBBBB0 =  X-----==-=-=---=--=X X= eBVBBBBBBBBBBBB",
"BBBBBBBBBBBBBBBBBBBBB0 #X                    X@ 0BVBBBBBBBBBBBBB",
"BBBBBBBBBBBBBBBBBBBBVBq  >rtrtrrrttrrrtrrrte&X yBVBBBBBBBBBBBBBB",
"BBBBBBBBBBBBBBBBBBBBBCb# eJJJJJJJJJJJJJJJJKG7 $mVBBBBBBBBBBBBBBB",
"BBBBBBBBBBBBBBBBBBBBBVb- tKKKKKKKKKKKKKKKKKK9 -cVVBBBBBBBBBBBBBB",
"BBBBBBBBBBBBBBBBBBBBBVb& 6bmmbbmbmbmbbmbnbmx< $cVBBBBBBBBBBBBBBB",
"BBBBBBBBBBBBBBBBBBBBBVb#                      #cVBBBBBBBBBBBBBBB",
"BBBBBBBBBBBBBBBBBBBBBVb# @=--=----=----=---=# #cVBBBBBBBBBBBBBBB",
"BBBBBBBBBBBBBBBBBBBBBVb@ O                  @ #cVBBBBBBBBBBBBBBB",
"BBBBBBBBBBBBBBBBBBBBBBb# O                  @ #cVBBBBBBBBBBBBBBB",
"BBBBBBBBBBBBBBBBBBBBBVb# O                  @ #cCBBBBBBBBBBBBBBB",
"BBBBBBBBBBBBBBBBBBBBBVb# O                  O #cVBBBBBBBBBBBBBBB",
"BBBBBBBBBBBBBBBBBBBBBVb# O                  @ #bVBBBBBBBBBBBBBBB",
"BBBBBBBBBBBBBBBBBBBBBVb# O          X     X # #cVBBBBBBBBBBBBBBB",
"BBBBBBBBBBBBBBBBBBBBBVb# OXOOOXOXOXOOXOO OOX@ #bVBBBBBBBBBBBBBBB",
"BBBBBBBBBBBBBBBBBBBBBVb# @$$$$$$$&$$$$$$$&$$@ #cVBBBBBBBBBBBBBBB",
"BBBBBBBBBBBBBBBBBBBVBVb#                      @cVBBBBBBBBBBBBBBB",
"BBBBBBBBBBBBBBBBBBBBBVb& 7SSSSSSSSSASSSSSASC4 &cVVBBBBBBBBBBBBBB",
"BBBBBBBBBBBBBBBBBBBBVVm- tKKKKKKKKKKKKKKKKKK9 -bVBBBBBBBBBBBBBBB",
"BBBBBBBBBBBBBBBBBBBBVCa  qHGGGGGGGGGGGGGGGHD6  fCVVBBBBBBBBBBBBB",
"BBBBBBBBBBBBBBBBBBBBCs X &2<<2233<31333<333, X  gCBBBBBBBBBBBBBB",
"BBBBBBBBBBBBBBBBBBVCf OO                      #  gCBBBBBBBBBBBBB",
"BBBBBBBBBBBBBBBBBBVi X@  X&&$$$&$$$$$&&$$$$$X  #X gCMBBBBBBBBBBB",
"BBBBBBBBBBBBBBBBBVy #O                          @X gCBBBBBBBBBBB",
"BBBBBBBBBBBBBBBBVy &O                            @X gCBBBBBBBBBB",
"BBBBBBBBBBBBBBVVy &X                              #O gABBBBBBBBB",
"BBBBBBBBBBBBBVVy &X                                #  aBBBBBBBBB",
"BBBBBBBBBBBBBVb  @                                  #  xVBBBBBBB",
"BBBBBBBBBBBBBCcO O                                   O xVBBBBBBB",
"BBBBBBBBBBBBNVb  O                                  X  xCBBBBBBB",
"BBBBBBBBBBBBBVc  @                                  X  cCMBBBBBB",
"BBBBBBBBBBBBBCb@ O         X      X       X          O xCMVBBBBB",
"BBBBBBBBBBBBBVc  -&&&&&&&&&&&&&&&&&&&&&$&&&&&&&$&&&&=X cCBBBBBBB",
"BBBBBBBBBBBBBBBy                                      yVBBBBBBBB",
"BBBBBBBBBBBBBBVVgsfsfssfsfsfsssfffssfssfgsfsssfsffsfshVBBBBBBBBB",
"BBBBBBBBBBBBBBBBCCCVVCVCCCCVCCCVCVCCVCCCCVVCCCCVVCCVVCBBBBBBBBBB",
"BBBBBBBBBBBBBBBBBBBBBBBBBBBBBBBBBBBBBBBBBBBVBBBBBBBBBBBBBBBBBBBB",
"BBBBBBBBBBBBBBBBBBBBBBBBBBBBBBBBVBBBBBBBBBBBBBBBBBBBBBBBBBBBBBBB",
"BBBBBBBBBBBBBBBBBBBBBBBBBBBBBBBBBBBBBBBBBBBBBBBBBBBBBBBBBBBBBBBB",
"BBBBBBBBBBBBBBBBBBBBBBBBBBBBBBBBBBBBBBBBBBBBBBBBBBBBBBBBBBBBBBBB",
"BBBBBBBBBBBBBBBBBBBBBBBBBBBBBBBBBBBBBBBBBBBBBBBBBBBBBBBBBBBBBBBB",
"BBBBBBBBBBBBBBBBBBBBBBBBBBBBBBBBBBBBBBBBBBBBBBBBBBBBBBBBBBBBBBBB",
"VVVVVVVVVVVVVVVVVVVVVVVVVVVVVVVVVVVVVVVVVVVVVVVVVVVVVVVVVVVVBVVV",
"MMMMMMMMMMMMMMMMMMMMMMMMMMMMMMMMMMMMMMMMMMMMMMMMMMMMMMMMMMMMMMMM",
"FFFFFFFFFFFFFFFFFFFFFFFFFFFFFFFFFFFFFFFFFFFFFFFFFFFFFFFFFFFFFFFF"
};
