/* XPM */
static char *_0e56bfa95944f2286a1017f23e825faSptM1jsNY2SS8a5K[] = {
/* columns rows colors chars-per-pixel */
"60 60 33 1 ",
"  c #27272B",
". c #322F31",
"X c #322E32",
"o c #332F32",
"O c #3D3638",
"+ c #3E3738",
"@ c #493E3E",
"# c #493F3F",
"$ c #4A3F3E",
"% c #554745",
"& c #604F4C",
"* c #614F4C",
"= c #6C5752",
"- c #6C5753",
"; c #785F58",
": c #785F59",
"> c #785F5A",
", c #846760",
"< c #8F6F66",
"1 c #8F6F67",
"2 c #9A776D",
"3 c #9B786D",
"4 c #A67F73",
"5 c #A77F74",
"6 c #A78073",
"7 c #A78074",
"8 c #B2877B",
"9 c #BD8F81",
"0 c #BE8F82",
"q c #C99788",
"w c #D59F8E",
"e c #D6A08F",
"r c #E1A896",
/* pixels */
"                                                            ",
"                                                            ",
"                                                            ",
"                                                            ",
"                                                            ",
"                                                            ",
"                                                            ",
"                                                            ",
"                                                            ",
"                                                            ",
"                                                            ",
"                                                            ",
"                            @5,                             ",
"                           :rrrqO                           ",
"                         O8rrrrrq-                          ",
"                        *wrrr8wrrr3X                        ",
"                      X1rrre: +qrrrqO                       ",
"                     @qrrr0+    ,rrrr,                      ",
"                    :errr1X      %qrrr8O                    ",
"                  X8rrre%         +3rrrq=                   ",
"                 %qrrr8+            :rrrr<                  ",
"                1rrrr:               +qrrrqO                ",
"              O0rrrq@                  <rrrr,               ",
"             :wrrr1X                    -qrrr3O             ",
"           X5rrrrq                       =rrrrq%            ",
"           <rrrrrq        X;4q04=        ,rrrrre            ",
"           :rr<wrr       %wrrrrrrqO      <rr,qrq            ",
"            %% qrr+     *rrrrrrrrre#     6rr%o&o            ",
"               8rr+    Oqrrq%O+=qrrqX    8rr%               ",
"               3rr%    3rrqo    @qrr;    0rr+               ",
"               3rr=    0rr%      %rr8    err                ",
"               ,rr:    rre       Xrrq    rre                ",
"               =rr,    rrq        rrq   +rr0                ",
"               =rr3    qrr$      %rr8   $rr8                ",
"               %rr7    <rr6      qrr,   %rr7                ",
"               +rr0    @rrr3+  @8rrqO   =rr<                ",
"               Xrrq     :rrrrqqrrrr:    :rr,                ",
"                rrr      ,rrrrrrre:     ,rr=                ",
"                qrrX      +2erre1+      3rr&                ",
"                0rrO         XX         8rr%                ",
"                7rr%                    8rr+                ",
"                3rr=                    errX                ",
"                :rr8                   :rrq                 ",
"                Xerrq,,,,,,,,,,,,,,,,,7rrr,                 ",
"                 :rrrrrrrrrrrrrrrrrrrrrrr0                  ",
"                  -qrrrrrrrrrrrrrrrrrrrr7X                  ",
"                    %:,,,,,,,,,,,,,,,,=o                    ",
"                                                            ",
"                                                            ",
"                                                            ",
"                                                            ",
"                                                            ",
"                                                            ",
"                                                            ",
"                                                            ",
"                                                            ",
"                                                            ",
"                                                            ",
"                                                            ",
"                                                            "
};
