/* XPM */
static char *ea14e7a3587e4b86afd6b94e77f8bce52kbR7HDwlaET7A1X[] = {
/* columns rows colors chars-per-pixel */
"80 80 232 2 ",
"   c None",
".  c #00000E",
"X  c #000011",
"o  c #000213",
"O  c #010213",
"+  c #000218",
"@  c #000519",
"#  c #00151F",
"$  c #11141B",
"%  c #13131C",
"&  c #12151C",
"*  c #10161F",
"=  c #021320",
"-  c #0A1823",
";  c #0C1C28",
":  c #111721",
">  c #151A22",
",  c #131D24",
"<  c #151E25",
"1  c #1D1E23",
"2  c #1F2227",
"3  c #222428",
"4  c #222429",
"5  c #232529",
"6  c #22252A",
"7  c #23272B",
"8  c #242429",
"9  c #242529",
"0  c #252529",
"q  c #262529",
"w  c #262629",
"e  c #26252A",
"r  c #25272B",
"t  c #26262A",
"y  c #27262A",
"u  c #26272A",
"i  c #27272A",
"p  c #27262B",
"a  c #27272B",
"s  c #28262A",
"d  c #28272A",
"f  c #29272A",
"g  c #28272B",
"h  c #27282B",
"j  c #28282A",
"k  c #28282B",
"l  c #2B282B",
"z  c #2A2A2B",
"x  c #28282C",
"c  c #29282C",
"v  c #2C292C",
"b  c #2C2A2D",
"n  c #2D2A2D",
"m  c #2D2B2E",
"M  c #3C2F32",
"N  c #303033",
"B  c #343133",
"V  c #343233",
"C  c #44393A",
"Z  c #473A3B",
"A  c #463B3B",
"S  c #493C3B",
"D  c #4E3E3F",
"F  c #504040",
"G  c #514040",
"H  c #514140",
"J  c #554342",
"K  c #504446",
"L  c #584543",
"P  c #5A4543",
"I  c #5B4643",
"U  c #584744",
"Y  c #594645",
"T  c #5A4745",
"R  c #5F4745",
"E  c #604946",
"W  c #634C49",
"Q  c #654F4A",
"!  c #684F4A",
"~  c #6B4F4A",
"^  c #6D4F4A",
"/  c #6D514B",
"(  c #6B504C",
")  c #6A514D",
"_  c #6F514C",
"`  c #6F524F",
"'  c #715350",
"]  c #765751",
"[  c #765952",
"{  c #7A5952",
"}  c #7B5B55",
"|  c #7C5954",
" . c #7C5B56",
".. c #7E5E56",
"X. c #825C55",
"o. c #845D56",
"O. c #875E58",
"+. c #83615A",
"@. c #856158",
"#. c #876059",
"$. c #87645D",
"%. c #8C675E",
"&. c #92665D",
"*. c #90675F",
"=. c #8F6860",
"-. c #956760",
";. c #926A61",
":. c #946860",
">. c #956960",
",. c #946961",
"<. c #946A61",
"1. c #966A61",
"2. c #966C62",
"3. c #966E64",
"4. c #986B62",
"5. c #9F6F64",
"6. c #9F7066",
"7. c #A47368",
"8. c #A57368",
"9. c #A57568",
"0. c #A8776C",
"q. c #AE796C",
"w. c #AC7A6D",
"e. c #AF7A6D",
"r. c #AE796E",
"t. c #AC7A6E",
"y. c #AD7A6F",
"u. c #AF7B6F",
"i. c #AC7C6F",
"p. c #B17B70",
"a. c #B27E72",
"s. c #B38071",
"d. c #B48072",
"f. c #B48172",
"g. c #B78173",
"h. c #B58276",
"j. c #BA8374",
"k. c #B98475",
"l. c #BB8474",
"z. c #BA8477",
"x. c #BD8474",
"c. c #BE8677",
"v. c #BE8879",
"b. c #C38A7B",
"n. c #C58A7A",
"m. c #C48A7B",
"M. c #C68A7C",
"N. c #C58C7D",
"B. c #C68C7C",
"V. c #C78C7D",
"C. c #C88D7D",
"Z. c #CA8E7E",
"A. c #CA8F7E",
"S. c #CC8D7E",
"D. c #CC9081",
"F. c #CD9081",
"G. c #CF9283",
"H. c #D29183",
"J. c #D09383",
"K. c #D39383",
"L. c #D39384",
"P. c #D39484",
"I. c #D49485",
"U. c #D69584",
"Y. c #D69686",
"T. c #D79786",
"R. c #D89787",
"E. c #D89887",
"W. c #D99887",
"Q. c #D89989",
"!. c #DB9988",
"~. c #DC9B88",
"^. c #DC9A89",
"/. c #DC9B89",
"(. c #DD9B89",
"). c #DE9A89",
"_. c #DE9B89",
"`. c #DE9B8A",
"'. c #DF9D8A",
"]. c #E09C8A",
"[. c #E29E8D",
"{. c #E29E8E",
"}. c #E49F8D",
"|. c #E59F8D",
" X c #E49F8E",
".X c #E5A18E",
"XX c #E6A18F",
"oX c #E8A18E",
"OX c #E8A28F",
"+X c #E9A28F",
"@X c #EAA390",
"#X c #EBA390",
"$X c #EBA491",
"%X c #EBA592",
"&X c #EFA592",
"*X c #EFA692",
"=X c #EFA693",
"-X c #EFA793",
";X c #EFA794",
":X c #F0A693",
">X c #F0A793",
",X c #F1A794",
"<X c #F1A894",
"1X c #F1A895",
"2X c #F2A894",
"3X c #F2A994",
"4X c #F2A895",
"5X c #F3A895",
"6X c #F2A995",
"7X c #F3A995",
"8X c #F2A896",
"9X c #F3A996",
"0X c #F3AA96",
"qX c #F4A994",
"wX c #F4A995",
"eX c #F4A996",
"rX c #F4AA96",
"tX c #F5AA96",
"yX c #F5AB96",
"uX c #F4AA97",
"iX c #F5AB97",
"pX c #F6AB97",
"aX c #F8AC97",
"sX c #F7AC98",
"dX c #F7AD98",
"fX c #F7AC99",
"gX c #F8AB98",
"hX c #F8AC98",
"jX c #F8AD98",
"kX c #F8AC99",
"lX c #F8AD99",
"zX c #F9AD99",
/* pixels */
"a a a a a a a a a a a a a a a a a a a a a a a a a a a a a a a a a a a a a a a a a a a a a a a a a a a a a a a a a a a a a a a a a a a a a a a a a a a a a a a a ",
"a a a a a a a a a a a a a a a a a a a a a a a a a a a a a a a a a a a a a a a a a a a a a a a a a a a a a a a a a a a a a a a a a a a a a a a a a a a a a a a a ",
"a a a a a a a a a a a a a a a a a a a a a a a a a a a a a a a a a a a a a a a a a a a a a a a a a a a a a a a a a a a a a a a a a a a a a a a a a a a a a a a a ",
"a a a a a a a a a a a a a a a a a a a a a a a a a a a a a a a a a a a a a a a a a a a a a a a a a a a a a a a a a a a a a a a a a a a a a a a a a a a a a a a a ",
"a a a a a a a a a a a a a a a a a a a a a a a a a a a a a a a a a a a a a a a a a a a a a a a a a a a a a a a a a a a a a a a a a a a a a a a a a a a a a a a a ",
"a a a a a a a a a a a a a a a a a a a a a a a a a a a a a a a a a a a a a a a a a a a a a a a a a a a a a a a a a a a a a a a a a a a a a a a a a a a a a a a a ",
"a a a a a a a a a a a a a a a a a a a a a a a a a a a a a a a a a a a a a a a a a a a a a a a a a a a a a a a a a a a a a a a a a a a a a a a a a a a a a a a a ",
"a a a a a a a a a a a a a a a a a a a a a a a a a a a a a a a a a a a a a a a a a a a a a a a a a a a a a a a a a a a a a a a a a a a a a a a a a a a a a a a a ",
"a a a a a a a a a a a a a a a a a a a a a a a a a a a a a a a a a a a a a a a a a a a a a a a a a a a a a a a a a a a a a a a a a a a a a a a a a a a a a a a a ",
"a a a a a a a a a a a a a a a a a a a a a a a a a a a a a a a a a a a a a a a a a a a a a a a a a a a a a a a a a a a a a a a a a a a a a a a a a a a a a a a a ",
"a a a a a a a a a a a a a a a a a a a a a a a a a a a a a a a a a a a a a a a a a a a a a a a a a a a a a a a a a a a a a a a a a a a a a a a a a a a a a a a a ",
"a a a a a a a a a a a a a a a a a a a a a a a a a a a a a a a a a a a a a a a a a a a a a a a a a a a a a a a a a a a a a a a a a a a a a a a a a a a a a a a a ",
"a a a a a a a a a a a a a a a a a a a a a a a a a a a a a a a a a a a a a a a a a a a a a a a a a a a a a a a a a a a a a a a a a a a a a a a a a a a a a a a a ",
"a a a a a a a a a a a a a a a a a a a a a a a a a a a a a a a a a a a a a a a a a a a a a a a a a a a a a a a a a a a a a a a a a a a a a a a a a a a a a a a a ",
"a a a a a a a a a a a a a a a a a a a a a a a a a a a a a a a a a a a a a a a a a a a a a a a a a a a a a a a a a a a a a a a a a a a a a a a a a a a a a a a a ",
"a a a a a a a a a a a a a a a a a a a a a a a a a a a a a a a a a a a a a a a a a a a a a a a a a a a a a a a a a a a a a a a a a a a a a a a a a a a a a a a a ",
"a a a a a a a a a a a a a a a a a a a a a a a a a a a a a a a a a a a a a a a a a a a a a a a a a a a a a a a a a a a a a a a a a a a a a a a a a a a a a a a a ",
"a a a a a a a a a a a a a a a a a a a a a a a a a a a a a a a a a a a a a a a a a a a a a a a a a a a a a a a a a a a a a a a a a a a a a a a a a a a a a a a a ",
"a a a a a a a a a a a a a a a a a a a a a a a a a a a a a a a a a a a a a a a a a a a a a a a a a a a a a a a a a a a a a a a a a a a a a a a a a a a a a a a a ",
"a a a a a a a a a a a a a a a a a a a a a a a a a a a a a a a a a a a a a a a a a a a a a a a a a a a a a a a a a a a a a a a a a a a a a a a a a a a a a a a a ",
"a a a a a a a a a a a a a a a a a a a a a a a a a a a a a a a a a a a a a a a a a a a a a a a a a a a a a a a a a a a a a a a a a a a a a a a a a a a a a a a a ",
"a a a a a a a a a a a a a a a a a a a a a a a a a a a a a a a a a a a a a a a a a a a a a a a a a a a a a a a a a a a a a a a a a a a a a a a a a a a a a a a a ",
"a a a a a a a a a a a a a a a a a a a a a a a a a a a a a a a a a a a a a a a a a a a a a a a a a a a a a a a a a a a a a a a a a a a a a a a a a a a a a a a a ",
"a a a a a a a a a a a a a a a a a a a a a a a a a a a a a a a a a a a a a a a a a a a a a a a a a a a a a a a a a a a a a a a a a a a a a a a a a a a a a a a a ",
"a a a a a a a a a a a a a a a a a a a a a a a a a a a a a a a a a a a a a a a a a a a a a a a a a a a a a a a a a a a a a a a a a a a a a a a a a a a a a a a a ",
"a a a a a a a a a a a a a a a a a a a a a a a a a a a a a a a a a a a a a a a a a a a a a a a a a a a a a a a a a a a a a a a a a a a a a a a a a a a a a a a a ",
"a a a a a a a a a a a a a a a a a a a a a a a a a a a a a a a a a a a a a a a a a a a a a a a a a a a a a a a a a a a a a a a a a a a a a a a a a a a a a a a a ",
"a a a a a a a a a a a a a a a a a a a a a a a a a a a a a a a a a a a a a a a a a a a a a a a a a a a a a a a a a a a a a a a a a a a a a a a a a a a a a a a a ",
"a a a a a a a a a a a a a a a a a a a a a a a a a a a a a a a a a a a a a a a a a a a a a a a a a a a a a a a a a a a a a a a a a a a a a a a a a a a a a a a a ",
"a a a a a a a a a a a a a a a a a a a a a a a a a a a a a a a a a a a a a a a a a a a a a a a a a a a a a a a a a a a a a a a a a a a a a a a a a a a a a a a a ",
"a a a a a a a a a a a a a a a a a a a a a a a a a a a a a a a a a a a a a a a a a a a a a a a a a a a a a a a a a a a a a a a a a a a a a a a a a a a a a a a a ",
"a a a a a a a a a a a a a a a a a a a a a a a a a a a a a a a a a a a a a a a a a a a a a a a a a a a a a a a a a a a a a a a a a a a a a a a a a a a a a a a a ",
"a a a a a a a a a a a a a a a a a a a a a a a a a a a a a a a a a a a a a a a a a a a a a a a a a a a a a a a a a a a a a a a a a a a a a a a a a a a a a a a a ",
"a a a a a a a a a a a a a a a a a a a a a a a a a a a a a a a a a a a a a a a a a a a a a a a a a a a a a a a a a a a a a a a a a a a a a a a a a a a a a a a a ",
"a a a a a a a a a a a a a a a a a a a a a a a a a a a a a a a a a a a a a a a a a a a a a a a a a a a a a a a a a a a a a a a a a a a a a a a a a a a a a a a a ",
"a a a a a a a a a a a a a a a a a a a a a a a a a a a a a a a a a a a a a a a a a a a a a a a a a a a a a a a a a a a a a a a a a a a a a a a a a a a a a a a a ",
"a a a a a a a a a a a a a a a a a a a a a a a a a a a a a a a a a a a a a a a a a a a a a a a a a a a a a a a a a a a a a a a a a a a a a a a a a a a a a a a a ",
"a a a a a a a a a a a a a a a a a a a a a a a a a a a a a a a a a a a a a a a a a a a a a a a a a a a a a a a a a a a a a a a a a a a a a a a a a a a a a a a a ",
"a a a a a a a a a a a a a a a a a a a a a a a a a a a a a a a a a a a a a a a a a a a a a a a a a a a a a a a a a a a a a a a a a a a a a a a a a a a a a a a a ",
"a a a a a a a a a a a a a a a a a a a a a a a a a a a a a a a a a a a a a a a a a a a a a a a a a a a a a a a a a a a a a a a a a a a a a a a a a a a a a a a a ",
"a a a a a a a a a a a a a a a a a a a a a a a a a a a a a a a a a a a a a a a a a a a a a a a a a a a a a a a a a a a a a a a a a a a a a a a a a a a a a a a a ",
"a a a a a a a a a a a a a a a a a a a a a a a a a a a a a a a a a a a a a a a a a a a a a a a a a a a a a a a a a a a a a a a a a a a a a a a a a a a a a a a a ",
"a a a a a a a a a a a a a a a a a a a a a a a a a a a a a a a a a a a a a a a a a a a a a a a a a a a a a a a a a a a a a a a a a a a a a a a a a a a a a a a a ",
"a a a a a a a a a a a a a a a a a a a a a a a a a a a a a a a a a a a a a a a a a a a a a a a a a a a a a a a a a a a a a a a a a a a a a a a a a a a a a a a a ",
"a a a a a a a a a a a a a a a a a a a a a a a a a a a a a a a a a a a a a a a a a a a a a a a a a a a a a a a a a a a a a a a a a a a a a a a a a a a a a a a a ",
"a a a a a a a a a a a a a a a a a a a a a a a a a a a a a a a a a a a a a a a a a a a a a a a a a a a a a a k a a a a a a a a a a a a a a a a a a a a a a a a a ",
"a a a a a a a a a a a a a a a a a a a a a a a a a a a a a a a a a a a a a ` i.v.h.3.a a a a a a a a a a a a a a a a a a a a a a a a a a a a a a a a a a a a a a ",
"a a a a a a a a a a a a a a a a a a a a a a a a a a a a a a a a a a a y.4X*X).H.L.+XqX!.T a a a a a a a a a a a a a a a a a a a a a a a a a a a a a a a a a a a ",
"a a a a a a a a a a a a a a a a a a a a a a a a a a a a a a a a h s J.:XP.Z # 8 3 + %.$X>Xo.a a a a a a a a a a a a a a a a a a a a a a a a a a a a a a a a a a ",
"a a a a a a a a a a a a a a a a a a a a a a a a a a a a a a a a a l.:X).% s a a a 6 6 =.aXJ.P a a a a a a a a a a a a a a a a a a a a a a a a a a a a a a a a a ",
"a a a a a a a a a a a a a a a a a a a a a a a a a a a a a a a a a G.4XS.; s a a a 3 h #.4X~.{ a a a a a a a a a a   a a a a a a a a a a a a a a a a a a a a a a ",
"a a a a a a a a a a a a a a a a a a a a a   a a a a a a a a a a s *.>X>Xl.A @ . . N *.-X4XA.a a a a a a a a a a a a a a a a a a a a a a a a a a a a a a a a a a ",
"a a a a a a a a a a a a a a a a a a a a a a a a a a a a a a a a x a #.~.iXqX4X4X4XqXqX.Xy.a a a a a a a a a a a a a a a a a a a a a a a a a a a a a a a a a a a ",
"a a a a a a a a a a a a a a a a a a a a a a a a a a a a a a a a s h a h a  .7.p.6...a h a a a a a a a a a a a a a a a a a a a a a a a a a a a a a a a a a a a a ",
"a a a a a a a a a a a a a a a a a a a a a a a a a a a a a a a a h E 4.d.F.[.qXfXdX[.G.h.2._ h s a a a a a a a a a a a a a a a a a a a a a a a a a a a a a a a a ",
"a a a a a a a a a a a a a a a a a a a a a a a a a a a a a a 2.I.iX4X4X).n.c.e.9.q.j.n.R.4XqX$XP.2.a a a a a a a a a a a   a a a a a a a a a a a a a a a a a a a ",
"a a a a a a a a a a a a a a a a a a h a a a a a a a a ~ ).:X:X).t.T % > 3 m l m l l a 1 O R g.W.4X;XC.W a a a a a a a a a k k a a a a a a a a a a a a a a a a a ",
"a a a a a a a a a a a a a a a a a a a a a a a a a ~ G.4X*XN.D # s a 3 a s s a a a 0 a 0 a s s , T b.@XlXC.T a a a a a a a k a a a a a a a a a a a a a a a a a a ",
"a a a a a a a a a a a a a a a a a a a a a a a a #.XX4XG.] & 3 a a a 8 3 s s 8 a 0 a a 0 3 0 a a a * X.I.qX@X[ a a a a a a a a a a a a a a a a a a a a a a a a a ",
"a a a a a a a a a a a a a a a a   a a a a a a 2.Q.4X].K - s 8 a a a a a a 3 3 a a 0 0 a a a 0 0 a 2 m } .X4Xb.~ a a a a a a a a a a a a a a a a a a a a a a a a ",
"a a a a a a a a a a a a a a a a a a a a a a a ;.~.qXQ.*.: , a a a a a a a s a 0 a a a a a a h s 6 O M a..XqXI.) a a a a a a a a a a a a a a a a a a a a a a a a ",
"a a a a a a a a a a a a a a a a a a a a a a a a u.$XqX$XR.k.9.2.{ ( P G D C B B B S D J Q ' O.5.i.C.|.:X4XW.#.h a a a a a a a a a a a a a a a a a a a a a a a a ",
"a a a a a a a a a a a a a a   a a a a a a a a a a a &.g.N.).:XiXiXlXlXlXaXlXaXlXlXlXgXlXaXaXfX4X|.G.c.8._ a a a a a a a a a a a a a a a a a a a a a a a a a a a ",
"a a a a a a a a a a a a a a a a a a a a a a a a a a a a a a a a a g a a k s k s a a a a a a a a a a a s a a a a a a a a a a a a a a a a a a a a a a a a a a a a ",
"a a a a a a a a a a a a a a a a a a a a a a a a a a a a a a a a a a a a a a a a a a a a a a a a a a a a a a a a a a a a a a a a a a a a a a a a a a a a a a a a ",
"a a a a a a a a a a a a a a a a a a a a a a a a a a a a a a a a a a a a a a a a a a a a a a a a a a a a a a a a a a a a a a a a a a a a a a a a a a a a a a a a ",
"a a a a a a a a a a a a a a a a a a a a a a a a a a a a a a a a a a a a a a a a a a a a a a a a a a a a a a a a a a a a a a a a a a a a a a a a a a a a a a a a ",
"a a a a a a a a a a a a a a a a a a a a a a a a a a a a a a a a a a a a a a a a a a a a a a a a a a a a a a a a a a a a a a a a a a a a a a a a a a a a a a a a ",
"a a a a a a a a a a a a a a a a a a a a a a a a a a a a a a a a a a a a a a a a a a a a a a a a a a a a a a a a a a a a a a a a a a a a a a a a a a a a a a a a ",
"a a a a a a a a a a a a a a a a a a a a a a a a a a a a a a a a a a a a a a a a a a a a a a a a a a a a a a a a a a a a a a a a a a a a a a a a a a a a a a a a ",
"a a a a a a a a a a a a a a a a a a a a a a a a a a a a a a a a a a a a a a a a a a a a a a a a a a a a a a a a a a a a a a a a a a a a a a a a a a a a a a a a ",
"a a a a a a a a a a a a a a a a a a a a a a a a a a a a a a a a a a a a a a a a a a a a a a a a a a a a a a a a a a a a a a a a a a a a a a a a a a a a a a a a ",
"a a a a a a a a a a a a a a a a a a a a a a a a a a a a a a a a a a a a a a a a a a a a a a a a a a a a a a a a a a a a a a a a a a a a a a a a a a a a a a a a ",
"a a a a a a a a a a a a a a a a a a a a a a a a a a a a a a a a a a a a a a a a a a a a a a a a a a a a a a a a a a a a a a a a a a a a a a a a a a a a a a a a ",
"a a a a a a a a a a a a a a a a a a a a a a a a a a a a a a a a a a a a a a a a a a a a a a a a a a a a a a a a a a a a a a a a a a a a a a a a a a a a a a a a ",
"a a a a a a a a a a a a a a a a a a a a a a a a a a a a a a a a a a a a a a a a a a a a a a a a a a a a a a a a a a a a a a a a a a a a a a a a a a a a a a a a ",
"a a a a a a a a a a a a a a a a a a a a a a a a a a a a a a a a a a a a a a a a a a a a a a a a a a a a a a a a a a a a a a a a a a a a a a a a a a a a a a a a ",
"a a a a a a a a a a a a a a a a a a a a a a a a a a a a a a a a a a a a a a a a a a a a a a a a a a a a a a a a a a a a a a a a a a a a a a a a a a a a a a a a ",
"a a a a a a a a a a a a a a a a a a a a a a a a a a a a a a a a a a a a a a a a a a a a a a a a a a a a a a a a a a a a a a a a a a a a a a a a a a a a a a a a ",
"a a a a a a a a a a a a a a a a a a a a a a a a a a a a a a a a a a a a a a a a a a a a a a a a a a a a a a a a a a a a a a a a a a a a a a a a a a a a a a a a "
};
