/* XPM */
static char *_18ec930cf834ed6ae9773241be8262aUQLEAGl67Ecv3qhh[] = {
/* columns rows colors chars-per-pixel */
"60 60 27 1 ",
"  c #27272B",
". c #322F31",
"X c #322E32",
"o c #3D3638",
"O c #3E3738",
"+ c #493E3E",
"@ c #4A3F3F",
"# c #554745",
"$ c #604F4C",
"% c #6C5752",
"& c #6C5753",
"* c #6D5753",
"= c #785F58",
"- c #785F59",
"; c #846760",
": c #8F6F66",
"> c #8F6F67",
", c #9A776D",
"< c #9B786D",
"1 c #A67F73",
"2 c #A78073",
"3 c #B2877B",
"4 c #BD8F81",
"5 c #C99788",
"6 c #D59F8E",
"7 c #D6A08F",
"8 c #E1A896",
/* pixels */
"                                                            ",
"                                                            ",
"                                                            ",
"                                                            ",
"                                                            ",
"                                                            ",
"                                                            ",
"                                                            ",
"                                                            ",
"                                                            ",
"                                                            ",
"                                                            ",
"                          X-<<>%X                           ",
"                         ;6888885=                          ",
"                        3888888888>                         ",
"                       >8883%#%5888=                        ",
"                      o888;     ;886X                       ",
"                      ,88<       388=                       ",
"                      488@       %88<                       ",
"                      588        @883                       ",
"                      588o       #883                       ",
"                      <88;       <88;                       ",
"                      #887o     @888O                       ",
"                       3885%X X;788<                        ",
"                       o58888888885o                        ",
"                        o588888883o                         ",
"                          *37852#                           ",
"                                                            ",
"                        X-2588842%X                         ",
"                      o,88888888886,o                       ",
"                     ;888888757888885=                      ",
"                   X388883%X   o%38888>                     ",
"                  X58883o         O5888<                    ",
"                  2888=             ;888>                   ",
"                 *888*               ;888#                  ",
"                 588;                 :883                  ",
"                #885                  .788@                 ",
"                :88=                   :88-                 ",
"                388#                   *88>                 ",
"                388+                   *88<                 ",
"                <88=                   <88;                 ",
"                =885o                 @788#                 ",
"                X5885%o             o;7883                  ",
"                 @6888842>;;%%%;;<1588885o                  ",
"                  @588888888888888888883o                   ",
"                    #<688888888888885:#                     ",
"                       @#%-;;;;;-%@X                        ",
"                                                            ",
"                                                            ",
"                                                            ",
"                                                            ",
"                                                            ",
"                                                            ",
"                                                            ",
"                                                            ",
"                                                            ",
"                                                            ",
"                                                            ",
"                                                            ",
"                                                            "
};
