/* XPM */
static char *_767ea82d1cf42f796b3217cf8bebea2c6uNIrFeL6xUym0X[] = {
/* columns rows colors chars-per-pixel */
"80 80 120 2 ",
"   c #000002",
".  c #000313",
"X  c #0E0D17",
"o  c #000419",
"O  c #010B1C",
"+  c #170F14",
"@  c #160F1A",
"#  c #03111E",
"$  c #0B151E",
"%  c #17101D",
"&  c #140E21",
"*  c #011621",
"=  c #031922",
"-  c #0D1924",
";  c #191123",
":  c #141D25",
">  c #1C1C24",
",  c #231721",
"<  c #231B24",
"1  c #08262C",
"2  c #1C2127",
"3  c #14232A",
"4  c #1D2329",
"5  c #1D2C32",
"6  c #212227",
"7  c #27272B",
"8  c #28272B",
"9  c #25292C",
"0  c #2A292C",
"q  c #312C2E",
"w  c #2D2D31",
"e  c #342E31",
"r  c #3B2D33",
"t  c #2A3036",
"y  c #343235",
"u  c #3C3335",
"i  c #3D3639",
"p  c #443436",
"a  c #433739",
"s  c #443A3B",
"d  c #4B3D3D",
"f  c #4A403F",
"g  c #54413F",
"h  c #59413F",
"j  c #534141",
"k  c #5B4443",
"l  c #5E4946",
"z  c #634644",
"x  c #644945",
"c  c #644D4A",
"v  c #6B4F4B",
"b  c #6D504C",
"n  c #72534E",
"m  c #755651",
"M  c #765952",
"N  c #7C5B55",
"B  c #7D5F59",
"V  c #825D55",
"C  c #85615A",
"Z  c #8C655D",
"A  c #91665D",
"S  c #94695F",
"D  c #906760",
"F  c #946B62",
"G  c #9B6D64",
"H  c #9E7167",
"J  c #9F7369",
"K  c #A17166",
"L  c #A4756A",
"P  c #A8766C",
"I  c #A6786C",
"U  c #AB796D",
"Y  c #B27C6F",
"T  c #AE7D70",
"R  c #B58173",
"E  c #BB8576",
"W  c #BD8679",
"Q  c #C48B7B",
"!  c #CA8E7D",
"~  c #CA8E80",
"^  c #CD9181",
"/  c #D39484",
"(  c #D39585",
")  c #D49485",
"_  c #D69686",
"`  c #D69786",
"'  c #D79786",
"]  c #D89888",
"[  c #DA9A88",
"{  c #DD9B8A",
"}  c #E09D8B",
"|  c #E29E8C",
" . c #E39E8D",
".. c #E29E8E",
"X. c #E5A08D",
"o. c #E6A18E",
"O. c #E9A28F",
"+. c #E9A38F",
"@. c #E7A190",
"#. c #E7A290",
"$. c #E9A390",
"%. c #EDA691",
"&. c #ECA592",
"*. c #EFA793",
"=. c #EFA694",
"-. c #EFA794",
";. c #F0A793",
":. c #F0A794",
">. c #F2A894",
",. c #F3A995",
"<. c #F3AA95",
"1. c #F2A996",
"2. c #F2AA96",
"3. c #F3AB96",
"4. c #F5AB96",
"5. c #F6AB96",
"6. c #F6AC97",
"7. c #F6AB98",
"8. c #F6AC98",
"9. c #F9AD99",
/* pixels */
"7 7 7 7 7 7 7 7 7 7 7 7 9 7 7 7 7 7 7 7 7 7 7 7 7 7 7 7 7 7 7 7 7 7 7 7 7 7 7 7 7 7 7 7 7 7 7 7 7 7 7 9 7 7 7 7 7 7 7 7 7 7 7 7 7 7 7 7 7 7 7 7 7 7 7 7 8 7 7 7 ",
"7 7 7 8 7 7 7 7 7 7 7 7 8 8 9 7 7 7 7 7 7 7 7 7 7 w 7 7 7 7 7 7 7 7 7 7 7 7 7 7 7 7 7 7 7 7 8 7 7 7 8 8 7 7 w 7 7 7 7 7 7 7 7 7 7 7 7 7 7 7 7 7 7 7 7 7 8 9 7 7 ",
"7 8 7 7 7 7 7 7 7 7 7 7 9 7 8 7 7 7 7 7 7 7 7 7 7 7 7 7 7 8 7 7 7 7 7 7 7 7 7 7 7 7 7 7 w 8 8 7 9 7 7 7 7 7 7 7 7 7 7 7 7 8 7 w 8 7 8 9 7 7 7 7 7 7 7 7 7 7 9 w ",
"7 7 7 7 7 7 7 7 7 7 7 8 8 7 8 7 7 w 7 7 7 7 7 7 7 7 7 7 7 7 7 8 7 7 7 7 7 7 7 7 7 7 7 7 9 9 8 7 8 7 7 7 7 7 7 7 7 7 7 7 7 8 8 9 8 8 8 9 7 7 7 7 7 7 7 7 8 8 8 7 ",
"7 7 7 7 7 7 7 7 7 7 8 8 7 7 8 9 7 7 7 7 7 7 7 7 7 7 7 w 9 8 9 8 7 7 7 7 7 w 7 7 7 7 7 7 7 7 7 7 8 7 7 7 7 7 7 7 7 7 7 7 9 7 7 7 7 7 7 w 7 7 7 7 7 7 7 7 7 7 7 7 ",
"7 7 8 7 7 7 w 7 9 7 7 9 7 7 7 8 7 7 7 7 7 7 7 7 7 7 7 7 8 9 7 7 7 7 7 7 7 7 7 7 7 7 7 7 7 7 7 7 7 7 7 7 7 7 7 7 7 7 7 7 8 8 7 7 7 7 7 7 7 7 7 7 7 7 7 7 7 7 7 7 ",
"7 7 7 7 7 7 7 7 8 7 7 7 8 9 7 7 7 7 7 7 7 7 7 7 7 7 7 7 8 7 7 7 7 7 7 7 7 7 7 7 7 7 7 7 7 7 7 7 7 7 7 7 7 7 7 7 7 7 7 7 7 7 7 7 7 7 7 7 7 7 w 7 w 7 7 7 7 7 7 7 ",
"8 7 7 7 8 7 7 7 7 8 7 7 7 8 7 7 7 7 7 7 7 7 7 7 7 7 7 7 8 8 7 7 7 7 7 7 7 7 7 7 w 7 7 7 7 7 7 7 7 7 7 7 7 7 7 7 7 7 7 7 7 7 7 7 7 7 7 7 7 7 7 7 7 7 7 7 7 7 7 7 ",
"7 8 7 7 7 7 8 7 7 7 7 8 9 9 9 9 8 8 8 9 8 8 7 7 7 7 7 7 7 7 7 7 7 7 7 7 7 7 7 7 7 7 7 7 7 7 7 7 7 7 7 7 7 7 7 7 7 7 7 w 7 7 7 7 7 7 7 7 7 7 7 7 7 7 7 7 7 7 7 7 ",
"7 8 9 7 7 7 7 7 8 9 7 7 9 9 8 8 9 w 7 7 7 7 7 7 7 7 7 7 7 7 7 7 7 w 7 7 7 7 7 7 7 7 7 7 7 7 7 7 7 7 7 7 7 7 7 7 7 7 7 7 7 7 7 7 7 7 7 7 7 7 7 7 7 7 7 7 7 7 7 w ",
"7 7 7 7 7 7 7 7 7 8 7 7 7 7 8 8 7 7 7 7 7 7 8 7 7 7 7 7 7 7 7 7 7 7 7 7 7 7 7 7 7 7 7 7 w 7 7 7 7 7 7 7 7 7 7 7 7 7 7 7 7 7 7 7 7 7 7 7 7 7 7 7 7 7 7 7 7 7 7 7 ",
"7 7 7 8 8 9 7 8 7 7 9 8 7 8 8 8 7 7 7 7 7 7 7 7 w 7 7 7 7 7 7 7 7 7 7 7 7 7 7 7 7 7 7 7 7 7 7 7 7 7 7 7 7 w 7 7 7 7 7 7 7 7 7 7 7 7 w 7 7 7 7 7 7 7 7 7 7 7 7 7 ",
"7 7 7 7 7 7 7 8 7 7 7 7 7 9 8 8 7 7 7 7 7 7 7 7 7 7 7 7 7 7 7 w 7 7 w 9 8 9 7 7 7 7 7 7 7 7 7 7 7 7 7 7 7 7 7 7 7 7 7 7 7 7 7 7 7 7 7 7 7 7 7 7 w 8 8 7 7 7 7 7 ",
"7 7 7 7 7 7 7 9 7 7 7 8 7 7 7 7 7 7 7 7 7 7 7 7 7 7 7 7 7 7 7 7 7 7 7 7 8 8 7 7 7 7 7 7 7 7 7 7 7 7 7 7 7 7 7 7 7 7 7 7 7 7 7 7 7 7 7 7 7 7 7 7 9 8 8 7 7 7 7 7 ",
"7 7 7 7 8 8 7 7 9 8 7 7 8 8 7 7 7 7 7 7 w 7 7 7 7 7 7 7 7 7 7 7 7 7 7 7 8 7 7 8 7 w 7 7 7 7 7 7 7 w 7 7 7 7 7 7 7 7 8 7 8 9 7 7 7 7 7 7 7 7 7 7 7 7 7 7 7 7 7 7 ",
"7 7 7 7 9 7 7 7 7 8 7 7 7 9 7 7 7 7 7 7 7 7 7 7 7 7 7 7 7 7 7 7 7 7 7 7 7 7 7 7 7 7 7 7 7 7 7 7 7 7 7 7 7 7 7 7 7 7 7 8 8 w 7 7 7 7 7 7 7 7 7 7 7 7 7 7 7 7 7 7 ",
"7 7 7 7 7 7 7 7 w 7 7 7 7 7 7 7 7 7 9 8 8 7 7 7 7 7 7 7 7 7 7 7 9 7 7 7 8 9 7 7 7 7 9 7 7 7 8 8 7 7 7 7 7 7 7 7 7 7 7 7 7 7 7 7 7 7 7 7 7 7 7 7 7 7 7 7 7 7 7 7 ",
"7 7 7 7 7 7 7 w 7 7 7 7 7 7 7 7 7 7 7 7 7 7 7 8 7 7 7 7 7 7 7 7 8 7 7 7 8 7 7 7 7 8 8 7 7 8 8 8 7 7 7 7 7 7 7 7 7 7 7 7 7 7 7 7 7 7 7 7 7 7 7 7 7 7 7 7 7 7 7 7 ",
"7 7 7 7 7 7 7 7 7 7 7 7 7 7 7 7 7 w 9 8 7 7 7 7 7 7 7 7 7 7 7 7 8 7 8 8 7 7 7 7 7 7 7 7 7 7 8 8 7 7 7 7 7 7 7 7 7 7 7 7 7 7 w 7 7 7 7 7 7 7 7 7 7 7 7 7 7 7 7 7 ",
"7 7 7 7 7 7 7 7 7 7 7 7 7 7 7 7 7 7 8 8 7 7 7 7 7 8 7 7 7 7 7 7 7 7 9 7 7 7 8 7 8 7 7 8 8 9 9 9 7 7 7 7 7 7 7 7 7 7 7 7 7 7 7 7 7 7 7 7 7 7 w 7 7 7 7 7 7 7 7 7 ",
"8 9 8 8 7 7 7 7 7 7 7 7 7 7 7 7 7 7 7 7 7 7 7 7 7 7 9 7 9 7 7 7 7 7 7 7 8 7 7 7 7 7 7 7 8 7 9 9 7 7 8 8 8 8 7 7 7 8 9 w 7 7 7 7 w 7 7 7 7 7 7 7 7 7 7 7 7 7 7 7 ",
"8 7 7 8 7 7 7 7 7 7 7 7 7 7 7 7 7 7 7 7 7 7 7 7 7 7 8 8 8 7 7 7 7 7 7 7 8 9 7 7 7 7 9 7 7 7 9 9 7 7 8 9 7 7 7 7 7 8 8 7 7 7 7 7 7 7 7 7 7 7 7 7 7 7 8 7 7 7 7 7 ",
"7 7 w 9 7 7 7 7 7 7 7 7 7 7 7 7 7 7 7 7 7 7 7 7 7 7 7 7 8 7 8 7 7 7 7 7 7 7 7 8 7 7 8 8 8 7 7 8 7 7 7 9 7 7 7 8 8 7 7 7 7 7 7 7 7 7 7 7 7 7 7 7 7 8 9 8 7 8 7 7 ",
"7 7 7 7 7 7 7 7 7 7 7 7 7 w 7 7 7 7 7 7 7 7 7 7 8 8 9 7 7 7 7 7 7 7 7 7 7 7 7 8 9 7 7 7 9 7 7 7 7 7 7 w 7 7 9 8 7 7 7 7 7 7 7 7 7 7 7 7 7 7 7 7 w 9 8 8 9 8 7 7 ",
"7 7 7 7 7 7 7 7 7 7 7 w 7 7 7 7 7 7 7 7 7 7 7 9 8 7 7 7 7 7 7 7 7 7 7 7 7 7 7 7 7 7 7 7 7 8 9 8 9 9 7 7 7 7 7 7 7 7 7 7 7 7 7 7 7 7 7 7 7 7 7 7 7 7 7 7 7 7 7 7 ",
"7 7 7 7 7 7 7 7 7 7 8 9 7 7 7 7 7 w 7 7 7 7 7 7 8 7 8 7 7 7 7 7 7 7 7 7 7 7 7 7 7 7 7 7 7 7 7 7 9 9 7 7 7 7 7 7 7 7 7 7 7 7 7 7 7 7 7 8 7 7 7 7 7 7 7 7 w 7 7 7 ",
"7 7 7 7 7 7 7 7 7 7 8 8 7 7 7 7 7 7 7 7 7 8 7 7 7 7 7 7 7 7 7 7 7 7 7 7 7 7 7 w 7 7 7 7 7 7 7 7 9 8 7 7 7 7 7 7 7 7 7 7 7 7 7 7 8 8 7 7 7 7 7 7 7 7 7 7 7 7 7 7 ",
"7 7 7 7 7 7 7 7 7 8 7 7 7 7 7 7 7 7 7 7 7 7 7 7 7 7 7 7 7 7 7 7 7 7 7 7 7 7 7 7 7 7 7 7 7 7 8 7 8 8 7 7 7 7 7 7 7 7 7 7 7 7 7 7 9 7 7 7 7 7 7 7 7 7 7 7 7 7 7 7 ",
"7 7 7 7 7 7 7 7 7 7 7 7 7 7 7 7 7 7 7 7 7 7 7 8 7 7 7 7 7 7 7 7 7 8 8 9 7 7 7 7 7 7 7 7 8 8 8 9 8 8 7 7 7 7 7 7 7 7 7 7 7 7 7 7 8 8 8 7 7 7 7 7 7 7 7 7 7 7 7 7 ",
"7 7 7 7 7 7 7 7 7 7 7 7 7 7 7 7 7 7 7 7 9 7 7 7 7 7 7 7 7 7 7 7 8 8 8 9 7 7 7 7 7 7 7 7 8 8 9 9 8 8 7 7 7 7 7 7 7 7 7 7 7 7 w 7 9 8 8 7 7 7 7 7 7 7 7 7 7 7 7 7 ",
"7 7 7 7 7 7 w 7 7 7 7 7 7 7 7 7 7 7 7 7 7 7 7 7 7 7 7 7 7 6 7 7 7 7 7 9 7 < 7 7 4 7 8 9 8 6 8 6 7 7 7 7 7 7 7 7 7 7 < 7 7 7 7 7 w 9 7 7 7 7 7 7 7 7 7 w 7 7 7 7 ",
"7 7 7 7 7 7 7 7 7 7 7 7 7 7 7 7 7 7 7 7 7 7 6 8 7 7 7 7 7 7 7 7 7 7 4 : 7 w w 7 w 7 < > 8 9 8 9 6 8 6 7 7 6 7 7 7 7 7 7 7 7 7 7 7 7 7 7 7 7 7 7 7 7 7 7 7 7 7 7 ",
"8 8 9 9 7 7 8 9 9 7 7 7 7 7 7 7 6 7 6 7 7 7 6 7 7 7 7 6 7 7 8 9 > 7 8 d N K T P K Z c r 8 4 7 7 7 7 6 7 7 7 6 7 7 7 7 7 7 7 7 7 7 7 7 7 7 7 7 7 7 w 7 7 7 7 7 7 ",
"8 8 0 6 7 8 7 7 8 7 7 8 7 8 6 7 8 7 8 7 7 7 7 7 6 7 7 7 7 7 6 6 d V Q $.:.1.1.1.1.1.&.( I c 7 4 7 7 7 7 7 7 7 7 8 6 8 6 6 8 8 6 7 7 7 7 7 7 7 7 7 7 7 7 7 7 7 7 ",
"6 9 8 8 8 8 7 7 8 7 7 7 8 7 6 7 7 7 8 7 6 7 7 7 7 8 7 7 6 7 - c ~ #.7.=.#.` ^ ~ ( } =.1.5.` D 0 6 7 7 6 6 7 7 7 7 6 8 7 7 8 7 7 w 7 7 7 7 7 7 7 7 7 7 7 7 7 7 7 ",
"0 9 9 8 8 8 7 8 7 7 7 7 7 7 7 7 6 7 6 7 7 7 7 6 7 7 7 7 7 . M ^ #.7.$.Q D j t 3 t V Y ^ &.6. .L p O 0 7 7 7 7 8 7 7 7 7 7 8 6 7 7 7 7 7 7 7 7 7 7 7 7 7 7 7 7 7 ",
"8 8 6 9 7 7 7 8 7 7 7 8 8 7 7 7 8 7 7 6 7 7 7 7 7 7 7 6 6 f R 5.%.{ P p # * 7 0 6 o o b ! %.1...N 3 7 6 7 7 7 6 8 9 8 8 6 8 7 6 7 7 7 7 7 7 7 7 7 7 7 w 9 8 7 8 ",
"8 8 0 9 7 8 7 9 9 8 7 7 7 7 7 7 8 7 8 8 6 7 7 7 6 8 7 2 , F ` 1.1.I t 6 7 7 7 7 7 8 > 0 N ( 8.X.L j = 7 7 7 7 7 8 6 8 9 8 8 8 8 7 7 7 7 7 7 w 7 7 7 7 7 8 8 7 7 ",
"8 8 8 9 8 9 7 7 8 7 9 8 7 7 7 7 6 8 7 7 7 7 6 7 7 7 7 2 , U ..;.;.S   0 7 6 7 7 7 7 7 4 y Q 8.O.Q b O 8 7 7 7 7 6 9 8 6 8 8 8 6 7 7 7 7 7 7 7 7 7 7 7 7 7 8 8 7 ",
"6 8 8 8 7 7 7 8 9 7 7 7 7 7 6 7 8 8 8 6 7 7 7 7 7 7 0 > , U ..;.>.G O 8 7 7 7 7 7 7 9 4 s Q 7.$.Q b O 9 8 7 6 7 8 8 8 9 6 6 8 8 7 7 7 7 7 7 7 7 7 7 7 7 7 9 7 7 ",
"9 9 9 8 8 9 9 0 7 7 7 9 8 7 7 7 8 6 8 8 6 8 8 6 7 6 7 6 < M Q 1.>.E c > 4 0 7 0 7 9 $ p G ] 9.X.G u : 6 8 6 7 7 6 9 8 8 8 8 7 7 7 7 7 7 7 7 7 7 7 7 7 7 7 7 7 7 ",
"8 0 8 8 8 6 8 9 8 9 7 8 7 7 7 6 8 8 6 8 9 8 8 9 7 7 7 7 9 - G %.;.%.Q k 8 o . . . 4 p A X.1.%.' x O 0 7 7 7 7 7 8 8 9 6 6 9 8 6 7 7 7 7 7 7 7 7 7 7 7 7 7 7 7 7 ",
"8 6 9 8 8 8 8 8 7 7 8 9 7 0 7 7 6 8 8 8 9 6 8 6 7 7 7 7 7 # g U  .;.;.{ P Z V V V H ! O.%.1.^ M q : 8 7 7 7 7 6 8 8 6 8 7 7 8 6 7 7 7 7 7 7 7 7 7 7 7 7 7 7 7 7 ",
"8 8 9 0 6 9 8 8 8 7 7 7 7 7 7 7 9 8 6 9 8 8 8 9 7 6 7 7 7 0 : q S ` 1.5.5.5.5.1.5.5.5.5.X.E N < 4 7 8 6 7 7 7 7 6 8 9 8 7 7 8 9 7 7 7 7 7 7 7 7 7 7 7 7 7 7 7 7 ",
"7 7 8 8 9 8 9 8 7 7 7 7 7 7 8 6 7 7 7 7 8 9 8 7 7 7 7 7 7 7 8 4 O c G W (  .;.1.X.] ! I N u O 7 0 7 7 6 7 7 7 7 8 6 7 7 6 7 7 7 7 8 7 7 7 7 7 7 7 7 7 7 8 8 7 7 ",
"7 7 9 8 9 0 8 8 7 7 8 7 7 7 7 7 6 7 7 6 8 6 6 7 7 7 6 7 7 6 8 9 q > * 9 a j x x h d q # - 0 q 7 7 7 7 7 8 8 6 8 7 7 7 6 7 7 6 7 7 8 7 7 7 7 7 7 7 7 7 7 9 7 7 7 ",
"7 7 9 7 0 9 8 9 7 7 7 7 7 8 7 7 7 7 7 7 7 7 8 8 7 6 7 9 6 < 2 : @ d N K R ! ( ! ! E P G b 4 & 1 6 7 7 7 7 6 7 7 7 7 7 7 6 7 7 7 8 8 7 7 7 7 7 7 7 7 w 7 7 7 7 8 ",
"7 7 8 8 8 9 6 8 8 7 7 7 7 7 7 6 7 7 7 7 7 9 6 7 7 7 7 6 9 r c U { O.O.%.:.;.;.;.1.>.%.O.X.{ Q F f 8 4 6 7 8 6 7 8 6 7 7 7 7 7 7 9 w 7 7 7 7 7 7 7 7 7 7 7 7 7 8 ",
"9 7 7 7 7 7 7 0 7 7 7 7 7 7 7 7 8 7 7 6 7 7 7 7 7 2 6 u C ` >.%.%.1.O. ...{ ( ! ` { X.X.$.%.:.$.[ U x 8 2 7 7 7 7 7 7 7 7 6 7 7 8 8 8 8 7 7 7 7 7 7 7 7 w 9 8 8 ",
"7 7 7 7 7 7 7 7 7 7 7 7 7 7 7 7 6 7 7 7 7 7 9 8 % p A / O.5.>.X.{ W A d ; + @ + @ % 5 c H ( ..=.1.5.{ K g 3 : 7 6 7 7 6 7 7 7 7 9 9 8 7 7 7 7 7 7 7 7 7 7 7 9 8 ",
"7 7 7 7 7 7 7 7 7 7 7 7 7 7 7 7 7 7 7 7 7 8 6 6 d Q %.%.1...Q Z e X > 6 0 0 0 0 8 0 8 2 % o x R ( +.1.%.! N 4 0 7 7 7 7 7 7 7 7 7 w 7 7 7 7 7 7 7 7 7 7 7 7 7 7 ",
"7 7 8 9 7 0 7 7 7 7 7 9 7 7 7 7 7 8 6 7 6 0 # l Q O.1.1.! V 3 $ 6 8 7 7 7 8 7 7 7 0 8 8 8 0 > X s U } <.1.{ K 4 2 9 7 7 7 7 7 6 7 7 7 7 7 7 7 7 7 7 7 7 7 7 7 7 ",
"7 7 7 9 7 7 7 7 7 7 7 7 7 7 7 6 7 6 7 7 9 O x E >.5.} R h # 7 0 9 7 6 7 8 7 7 8 7 7 7 7 7 6 0 8 3 6 C ! +.9.[ C e - 0 6 6 7 7 6 7 7 7 7 7 w 7 7 7 7 7 7 7 7 7 7 ",
"7 7 7 7 7 7 7 7 8 7 7 7 7 7 7 7 7 7 8 7 7 3 H &.%.O.E q : 8 7 6 7 7 7 7 6 7 7 6 7 7 6 7 7 7 7 7 9 6 $ n { >.%.' x # 0 8 7 7 7 7 7 7 7 7 7 7 7 7 7 7 w 7 7 7 7 7 ",
"0 7 7 7 7 7 7 7 7 7 7 7 7 7 7 7 7 7 7 6 2 c E 1.1.E c > 6 7 7 7 7 7 7 7 7 7 7 7 7 6 7 7 7 7 7 7 0 0 $ u G ] 6.X.A w 2 8 6 7 7 6 7 7 7 7 7 7 7 7 7 7 7 7 7 7 7 7 ",
"7 7 7 7 7 7 0 7 7 7 7 7 7 7 7 7 7 7 7 2 > A ( 1.1.K 1 9 8 7 7 7 7 7 7 6 7 8 6 7 7 7 7 7 7 6 7 7 7 8 2 0 c ! 6.X.I g $ 8 8 7 7 8 7 7 7 7 7 7 7 7 7 7 7 7 7 7 7 7 ",
"7 7 7 9 0 7 7 7 7 7 7 7 0 7 7 7 7 7 7 2 , S ( %.:.G O 8 7 7 7 7 7 6 7 7 7 7 7 6 7 7 7 7 7 7 7 7 7 0 2 0 c ! 8.X.U k # 9 8 8 8 6 7 7 7 7 7 7 7 7 7 7 7 7 7 7 7 7 ",
"7 7 7 7 7 7 7 7 7 7 7 7 7 7 7 7 7 8 6 6 2 M Q %.:.Q x # : 7 7 7 0 7 7 0 7 7 7 7 7 7 7 7 7 7 7 7 7 6 . u L { 6.X.G i 2 9 6 9 8 9 7 7 7 7 7 7 7 7 7 7 7 7 7 7 7 7 ",
"7 7 7 7 7 7 7 7 7 7 7 7 7 7 7 7 7 6 8 6 6 i I %.;.O.Q n u 3 > > > 2 2 4 6 6 6 7 7 2 4 4 > 2 : > : q g F X.%.5.[ v # 0 6 6 8 8 8 7 7 7 7 7 7 7 7 7 7 7 7 7 7 7 7 ",
"0 7 7 7 7 7 7 0 7 7 7 7 7 7 7 6 7 7 7 7 9 # g R O.5.%.{ E L F V n x j d j u y q y a d j l b n A K R ` %.%.1.! N q : 9 8 9 8 9 6 7 7 7 7 7 7 7 7 7 7 7 7 7 7 7 7 ",
"7 7 7 7 7 7 7 7 7 7 7 7 7 7 7 7 7 6 7 7 7 0 # q A ( %.5.8.9.1...[ ( ^ ~ Q Q Q Q W Q ^ ~ / ` { %.5.8.8.=.{ R x # 2 8 7 7 8 9 8 7 8 7 8 7 7 7 7 7 7 7 7 w 8 7 7 7 ",
"7 7 7 7 7 7 7 7 0 7 7 7 7 7 7 7 7 7 7 7 7 7 0 > > h V J E ..1.9.7.8.7.8.8.8.8.6.8.8.7.8.7.9.9.5.X.~ U A v e : 0 8 6 7 7 8 6 7 7 8 8 7 7 7 7 7 7 7 7 7 7 7 7 7 7 ",
"7 7 7 7 7 7 7 7 7 7 7 8 7 7 7 7 7 7 7 7 7 7 7 7 7 - O 4 u k b M B Z F J L L L L L L L G F C m v z d w * # 2 8 6 7 7 7 7 7 7 7 6 9 8 7 7 7 7 7 7 7 7 7 7 8 8 7 7 ",
"7 7 7 0 9 7 7 7 7 7 7 7 7 8 7 6 6 7 7 7 6 7 7 7 7 7 7 7 4 > > 2 4 7 7 7 7 w 8 8 7 w 7 8 7 4 > > > > 7 7 8 7 8 7 7 7 6 7 7 7 7 7 9 w 7 7 7 7 7 7 7 7 7 7 8 9 w 7 ",
"7 7 7 7 9 7 7 7 7 7 8 7 7 7 7 7 7 7 7 7 7 7 7 7 7 7 7 7 w 9 8 8 7 7 7 7 7 7 7 7 6 9 7 6 7 7 9 9 8 9 8 7 7 7 7 7 7 7 7 7 7 7 7 7 7 w 7 7 7 7 7 7 7 7 7 7 7 7 7 7 ",
"7 7 7 7 7 7 7 7 7 7 7 7 7 7 7 7 7 7 7 7 7 7 7 7 7 7 7 7 9 8 8 9 7 7 7 w 7 7 9 7 7 7 9 7 8 7 8 7 8 8 7 7 7 7 7 7 7 7 7 7 7 7 7 7 7 7 7 7 7 7 7 7 7 7 7 7 7 7 7 7 ",
"7 7 7 7 7 7 7 7 7 7 7 7 7 7 7 7 7 7 7 7 7 w 7 7 7 7 7 7 7 7 8 8 7 7 7 7 7 7 7 7 7 8 9 9 8 8 7 7 8 8 7 7 7 7 7 7 7 7 7 7 7 7 7 7 7 7 7 7 w 7 7 7 7 w 7 7 7 7 7 7 ",
"0 7 7 7 7 7 7 0 8 8 9 7 7 7 7 7 7 7 7 7 7 7 7 7 7 7 7 7 7 8 8 8 7 7 7 7 7 7 7 7 7 8 8 8 9 7 7 7 8 7 7 7 7 7 7 7 7 7 7 7 7 7 7 7 7 7 7 7 9 7 7 7 7 7 7 7 7 7 7 7 ",
"7 7 7 7 7 7 7 0 9 8 8 7 8 7 7 7 7 7 7 7 7 7 7 7 7 7 7 7 7 7 7 7 w 7 7 7 7 7 7 7 7 7 8 7 7 7 8 8 7 7 7 7 7 7 7 7 7 7 7 7 7 7 7 7 7 7 7 7 8 8 8 8 7 7 7 7 w 7 7 7 ",
"7 7 7 7 7 7 7 7 7 7 7 7 7 7 7 7 7 7 7 7 7 7 7 7 7 7 7 7 7 7 7 7 7 7 7 7 7 7 7 7 9 7 8 9 7 7 9 7 7 w 7 7 7 7 7 7 7 7 7 7 w 7 7 7 7 7 7 7 8 9 7 7 7 7 7 7 7 7 7 7 ",
"7 7 7 7 7 7 7 7 7 7 9 7 7 7 8 8 7 7 7 7 7 7 7 7 7 7 7 7 7 7 7 7 7 7 7 7 7 7 7 7 8 7 7 7 7 7 7 7 7 7 7 7 7 7 7 7 7 7 7 8 9 9 7 7 7 7 7 7 7 7 7 7 7 7 7 7 7 7 7 7 ",
"8 7 7 0 7 7 7 7 7 8 8 7 7 7 9 7 7 7 w 7 7 7 7 7 7 7 7 7 7 7 7 7 7 7 7 7 7 7 7 7 8 7 7 7 8 7 7 7 7 7 7 7 7 7 7 7 7 7 8 8 8 8 7 7 7 7 7 7 7 7 7 7 7 7 7 7 7 7 7 7 ",
"7 7 7 7 8 7 7 7 7 7 9 8 8 8 7 7 7 7 7 7 7 7 7 7 7 7 7 7 7 7 7 7 7 7 7 7 7 7 7 7 7 7 7 7 7 7 7 7 7 7 7 7 7 7 7 7 7 7 7 7 7 7 7 7 7 7 7 7 7 7 7 8 7 7 7 7 7 7 7 7 ",
"7 7 8 7 7 7 9 8 7 8 7 7 9 7 7 7 7 7 7 7 7 7 7 7 7 7 7 7 7 7 7 7 7 7 7 7 7 7 7 7 7 7 7 7 w 7 7 7 7 7 7 7 7 7 7 7 7 7 7 7 7 7 7 7 7 7 7 7 8 8 7 7 7 7 7 7 7 7 7 7 ",
"7 7 7 7 8 7 7 8 7 8 7 7 7 7 8 8 7 7 7 7 7 7 7 7 7 7 w 7 7 7 7 7 7 7 7 7 7 7 7 w 7 7 7 7 7 7 7 7 7 7 7 7 7 7 7 7 7 7 7 7 7 7 7 7 7 7 7 7 7 9 8 9 7 7 7 7 7 7 7 7 ",
"8 7 7 7 9 7 7 7 7 9 8 7 7 7 7 9 7 7 7 7 7 7 8 7 7 7 7 7 7 7 7 7 7 7 7 7 7 7 7 7 7 7 7 7 7 7 7 7 7 7 7 7 7 7 7 7 w 7 7 7 7 7 7 7 7 7 7 7 7 8 8 w 7 7 7 7 7 7 7 7 ",
"7 7 7 8 9 8 9 8 7 7 9 8 9 8 7 7 7 7 7 7 7 7 7 7 7 7 7 7 7 7 7 w 7 7 7 7 8 8 7 7 7 7 7 7 7 7 7 7 7 7 7 7 7 7 7 7 7 7 7 7 7 7 w 7 7 7 7 7 7 7 7 7 7 7 7 7 7 7 7 7 ",
"7 7 7 7 7 7 7 7 9 7 9 9 8 8 7 7 7 7 7 7 8 8 7 7 7 7 7 7 7 7 7 7 7 7 7 7 7 9 7 7 7 7 7 7 7 7 7 7 7 7 8 8 7 7 7 7 7 7 7 7 7 7 7 7 w 7 7 7 7 7 7 7 7 7 7 7 7 7 7 7 ",
"7 8 7 7 7 9 8 7 8 7 7 9 8 7 8 7 7 7 7 7 9 8 w 7 7 7 7 7 7 7 7 7 7 7 7 7 7 7 7 7 8 8 w 9 7 7 7 7 w 8 8 9 8 7 7 7 7 7 7 7 7 7 7 7 7 7 7 7 7 7 7 7 7 7 7 7 7 7 7 w ",
"7 7 7 7 7 7 8 7 8 7 7 9 8 8 7 7 7 w 7 7 8 8 9 7 7 7 7 7 7 7 7 7 7 7 7 8 7 7 7 8 7 8 8 9 7 7 7 7 9 8 7 7 7 7 7 7 7 7 7 7 7 7 7 7 7 7 7 7 7 7 7 7 7 7 7 7 7 7 7 7 "
};
