/* XPM */
static char *_fd0ebaaec9e41d3a336f00b523b0bbfpcagAvPJsaVRqJdM[] = {
/* columns rows colors chars-per-pixel */
"60 60 131 2 ",
"   c None",
".  c #27272B",
"X  c #28272B",
"o  c #2B292D",
"O  c #302D2F",
"+  c #2F2C30",
"@  c #322E31",
"#  c #363133",
"$  c #3B3436",
"%  c #3F3638",
"&  c #413738",
"*  c #453A3B",
"=  c #4C3E3E",
"-  c #544442",
";  c #594645",
":  c #5D4947",
">  c #5E4A48",
",  c #644E4B",
"<  c #67504D",
"1  c #6A524E",
"2  c #6E5450",
"3  c #715652",
"4  c #765954",
"5  c #7A5C56",
"6  c #7E5E58",
"7  c #83615B",
"8  c #89655E",
"9  c #8B6760",
"0  c #8E6960",
"q  c #946C64",
"w  c #986F66",
"e  c #9A7067",
"r  c #9D7269",
"t  c #A3766C",
"y  c #A7786E",
"u  c #AA7A6F",
"i  c #AD7D71",
"p  c #B17F72",
"a  c #B58175",
"s  c #B98477",
"d  c #BC8679",
"f  c #BF887A",
"g  c #C0887B",
"h  c #C2897B",
"j  c #C28A7C",
"k  c #C38A7C",
"l  c #C38B7C",
"z  c #C48B7C",
"x  c #C48B7D",
"c  c #C58C7E",
"v  c #C68C7E",
"b  c #C78D7E",
"n  c #C48B7D",
"m  c #C88D7F",
"M  c #C88E7F",
"N  c #C98E7F",
"B  c #C88E7F",
"V  c #CA8E80",
"C  c #CA8F80",
"Z  c #CB8F80",
"A  c #CB8F80",
"S  c #CB9080",
"D  c #CC9081",
"F  c #CD9181",
"G  c #CD9182",
"H  c #CE9182",
"J  c #CE9282",
"K  c #CF9282",
"L  c #CD9182",
"P  c #D09282",
"I  c #D19383",
"U  c #D29384",
"Y  c #D29484",
"T  c #D39584",
"R  c #D39585",
"E  c #D49585",
"W  c #D59685",
"Q  c #D59686",
"!  c #D69686",
"~  c #D79786",
"^  c #D69787",
"/  c #D79787",
"(  c #D49585",
")  c #D89787",
"_  c #D79887",
"`  c #D89887",
"'  c #D99887",
"]  c #D89887",
"[  c #D99988",
"{  c #DA9988",
"}  c #DB9988",
"|  c #DA9989",
" . c #DC9A88",
".. c #DC9A89",
"X. c #DC9B8A",
"o. c #DD9B8A",
"O. c #DE9B8A",
"+. c #DE9C8A",
"@. c #DF9C8B",
"#. c #DF9D8B",
"$. c #DC9A8A",
"%. c #E09D8B",
"&. c #E19D8C",
"*. c #E19E8C",
"=. c #E29E8C",
"-. c #E29E8D",
";. c #E39E8D",
":. c #E39F8D",
">. c #E49F8D",
",. c #E29E8C",
"<. c #E5A08E",
"1. c #E6A08E",
"2. c #E6A18E",
"3. c #E6A18F",
"4. c #E7A18F",
"5. c #E7A28F",
"6. c #E5A08E",
"7. c #E8A18F",
"8. c #E8A28F",
"9. c #E8A18F",
"0. c #E8A290",
"q. c #E9A290",
"w. c #E9A390",
"e. c #EAA390",
"r. c #EAA391",
"t. c #EBA491",
"y. c #ECA491",
"u. c #ECA492",
"i. c #ECA592",
"p. c #EDA592",
"a. c #EDA592",
/* pixels */
". . . . . . . . . . . . . . . . . . . . . . . . . . . . . . . . . . . . . . . . . . . . . . . . . . . . . . . . . . . . ",
". . . . . . . . . . . . . . . . . . . . . . . . . . . . . . . . . . . . . . . . . . . . . . . . . . . . . . . . . . . . ",
". . . . . . . . . . . . . . . . . . . . . . . . . . . . . . . . . . . . . . . . . . . . . . . . . . . . . . . . . . . . ",
". . . . . . . . . . . . . . . . . . . . . . . . . . . . . . . . . . . . . . . . . . . . . . . . . . . . . . . . . . . . ",
". . . . . . . . . . . . . . . . . . . . . . . . . . . . . . . . . . . . . . . . . . . . . . . . . . . . . . . . . . . . ",
". . . . . . . . . . . . . . . . . . . . . . . . . . . . . . . . . . . . . . . . . . . . . . . . . . . . . . . . . . . . ",
". . . . . . . . . . . . . . . . . . . . . . . . . . . . . . . . . . . . . . . . . . . . . . . . . . . . . . . . . . . . ",
". . . . . . . . . . . . . . . . . . . . . . . . . . . . . . . . . . . . . . . . . . . . . . . . . . . . . . . . . . . . ",
". . . . . . . . . . . . . . . . . . . . . . . . . . . . . . . . . . . . . . . . . . . . . . . . . . . . . . . . . . . . ",
". . . . . . . . . . . . . . . . . . . . . . . . . . . . . . . . . . . . . . . . . . . . . . . . . . . . . . . . . . . . ",
". . . . . . . . . . . . . . . . . . . . . . . . . . . . . . . . . . . . . . . . . . . . . . . . . . . . . . . . . . . . ",
". . . . . . . . . . . . . . . . . . . . . . . . . . . y p s f e ; . . . . . . . . . . . . . . . . . . . . . . . . . . . ",
". . . . . . . . . . . . . . . . . . . . . . . . X 6 o.1.p.p.p.%.a ; . . . o . . . . . . . . . . . . . . . . . . . . . . ",
". . . . . . . . . . . . . . . . . . . . . . . . 6 G p.1.P N q.p.q.a ; 9 u i i 0 . . . . . . . . . . . . . . . . . . . . ",
". . . . . . . . . . . . . . . . . . . . . . . . N q.u.t 2 ; 1 g 1.p.q.=.p.p.q._ y . . . . . . . . . . . . . . . . . . . ",
". . . . . . . . . . . . . . . .   . . . . . . . p.p.E $ . . o , =.p.p.p.U ^ p.p.p.f . . . . . . . . . . . . . . . . . . ",
". . . . . . . . . . . . . . . . @ , , : . . . 1 %.8.y . . . . * o.p.q.s 1 , 1 f 8.p.8 . . . . . . . . . . . . . . . . . ",
". . . . . . . . . . . . . . . . . E 1.N u 8 1 q ' p.p * . . . < R p.x > . . @ 1 o.p.N . . . . . . . . . . . . . . . . . ",
". . . . . . . . . . . . . . .   3 p.p.p.p.p.%.E q.p.1.7 * O . 8 [ p.e % . . . - h p.k X . . . . . . . . . . . . . . . . ",
". . . . . . . . . . . . . . .   q p.=.N N %.p.p.p.p.p.G r 5 , s q.p.3 @ . . . > x p.p . . . . . . . . . . . . . . . . . ",
". . . . . . . . . . . . . . . ; d p.z 5 1 7 e a G 1.p.p.p.p.' +.p.>.7 = $ . + r =.p.r . . . . . . . . . . . . . . . . . ",
". . . . . . . . . . . . . . . ; %.p.u $ . . # - 2 8 r s T 8.p.p.p.p.^ i 0 9 a =.p.+.1 . . . . . . . . . . . . . . . . . ",
". . . . . . . . . . . . . .   5 p.%.w . . . . . . . & ; 3 0 y f ^ p.p.p.p.q.4.p.p.h , o . . . . . . . . . . . . . . . . ",
". . . . . . . . . . . . . .   r p.P 4 . . . . . . . . . . o * : 4 0 i x +.p.i.q.p.>.h r 6 1 . . . . . . . . . . . . . . ",
". . . . . . . . . . . . . . ; z p.b < # o . . . . . . . . . . . . @ = , 6 w i V =.p.p.p.p.[ a 2 . . . . . . . . . . . . ",
". . . . . . . . . . . . . . ; 8.p.8.d 8 , % # @ o . . . . . . . . . . . . @ - 2 7 r a G 4.p.p.a . . . . . . . . . . . . ",
". . . . . . . . . . . . .   ; Q i.p.i.i.i.' i 7 ; $ # + o o . . . . . . . . . . . $ - 3 i p.6.t . . . . . . . . . . . . ",
". . . . . . . . . . . . . X . 0  .p.8.5.8.i.p.i.i.K y 5 = $ # o . . . . . . . . . . . # r p.E 6 . . . . . . . . . . . . ",
". . . . . . . . . . . . . . X X h p.E a l _ +.6.i.i.i.i.p.b r 3 * $ @ + . . . . . . . $ V i.A . . . . . . . . . . . . . ",
". . . . . . . . . . . . . . X ; 8.p.h # . = 4 t K _ +.6.p.p.p.p.q.f q , % $ @ o . . o = p.p.s . . . . . . . . . . . . . ",
". . . . . . . . . . . . . . . 5 p.1.t . . . . . . - 6 a Q | =.1.p.p.p.p.=.a 8 : % # $ 4 p.@.r . . . . . . . . . . . . . ",
". . . . . . . . . . . . . . X t p.' 5 . . . . . . . . . + : 8 a ^ [ =.q.p.p.p.p.[ i 8 a p.R 3 . . . . . . . . . . . . . ",
". . . . . . . . . . . . . . . G p.A ; . . . . . . . . . . . . . $ , q f ^ X.>.q.i.p.p.p.p.b . . . . . . . . . . . . . . ",
". . . . . . . . . . . . . . : i.p.s @ . . . . . . . . . . . . . . . . . * 2 r G =.p.p.p.q.s . . . . . . . . . . . . . . ",
". . . . . . . . . . . . . . 8 p.=.r . . . . . . . . . . . . . . . . . . . . . % i p.=.[ f 3 . . . . . . . . . . . . . . ",
". . . . . . . . . . . . . . u p.R 3 . . . . . . . . . . . . . . . . . . . . . = f p.G , . . . . . . . . . . . . . . . . ",
". . . . . . . . . . . . . . T i.V - . . . . . . . . . . . . . . . . . . . . X ; 4.u.f . . . . . . . . . . . . . . . . . ",
". . . . . . . . . . . . . 1 p.8.s . . . . . . . . . . . . . . . . . . . . . @ 6 p.=.y . . . . . . . . . . . . . . . . . ",
". . . . . . . . . . X . X 8 p.+.q . . . . . . . . . . . . . . . . . . . . . & t p.^ 7 . . . . . . . . . . . . . . . . . ",
". . . . . . . . . . X X X a p.+.r ; % . . . . . . . . . . . . . . . . . . . = A p.A ; . . . . . . . . . . . . . . . . . ",
". . . . . . . . . . . . . [ i.p.E s r 7 2 - $ . . . . . . . . . . . . . X o : p.p.f . . . . . . . . . . . . . . . . . . ",
". . . . . . . . . . . . . u [ p.p.p.u.=.A i w 6 , = @ . . . . . . . . . X # 7 p.=.r . . . . . . . . . . . . . . . . . . ",
". . . . . . . . . . . . . . 6 q i V =.p.p.p.p.@.V i q 5 , * + . . . . . . * i p.E 4 X . . . . . . . . . . . . . . . . . ",
". . . . . . . . . . . . . . . . . < 6 w a G >.p.p.i.p.) f y 9 4 ; & . . . - U p.V . X . . . . . . . . . . . . . . . . . ",
". . . . . . . . . . . . . . . . . . . . . 2 9 r s U q.p.p.p.p.E s t 8 2 : 4 p.q.s . . . . . . . . . . . . . . . . . . . ",
". . . . . . . . . . . . . . . . . . . . . . . . ; 3 9 t f _ p.p.p.p.q.J s c p.X.w . . . . . . . . . . . . . . . . . . . ",
". . . . . . . . . . . . . . . . . . .   . . . . . . . . > 4 0 i x [ p.p.q.p.u.U 3 . . . . . . . . . . . . . . . . . . . ",
". . . . . . . . . . . . . . . . . . . . . . . . . . . . . . . . , 6 w i A =.p.s . . . . . . . . . . . . . . . . . . . . ",
". . . . . . . . . . . . . . . . . . . . . . . . . . . . . . . . . . . . 1 6 9 > . . . . . . . . . . . . . . . . . . . . ",
". . . . . . . . . . . . . . . . . . . . . . . . . . . . . . . . . . . . . . . . . . . . . . . . . . . . . . . . . . . . ",
". . . . . . . . . . . . . . . . . . . . . . . . . . . . . . . . . . . . . . . . . . . . . . . . . . . . . . . . . . . . ",
". . . . . . . . . . . . . . . . . . . . . . . . . . . . . . . . . . . . . . . . . . . . . . . . . . . . . . . . . . . . ",
". . . . . . . . . . . . . . . . . . . . . . . . . . . . . . . . . . . . . . . . . . . . . . . . . . . . . . . . . . . . ",
". . . . . . . . . . . . . . . . . . . . . . . . . . . . . . . . . . . . . . . . . . . . . . . . . . . . . . . . . . . . ",
". . . . . . . . . . . . . . . . . . . . . . . . . . . . . . . . . . . . . . . . . . . . . . . . . . . . . . . . . . . . ",
". . . . . . . . . . . . . . . . . . . . . . . . . . . . . . . . . . . . . . . . . . . . . . . . . . . . . . . . . . . . ",
". . . . . . . . . . . . . . . . . . . . . . . . . . . . . . . . . . . . . . . . . . . . . . . . . . . . . . . . . . . . ",
". . . . . . . . . . . . . . . . . . . . . . . . . . . . . . . . . . . . . . . . . . . . . . . . . . . . . . . . . . . . ",
". . . . . . . . . . . . . . . . . . . . . . . . . . . . . . . . . . . . . . . . . . . . . . . . . . . . . . . . . . . . ",
". . . . . . . . . . . . . . . . . . . . . . . . . . . . . . . . . . . . . . . . . . . . . . . . . . . . . . . . . . . . "
};
