/* XPM */
static char *_b18804d420f48f8e3b4b80a6273f9f2T9zCwY7hHHOccIFP[] = {
/* columns rows colors chars-per-pixel */
"60 60 23 1 ",
"  c #27272B",
". c #322F31",
"X c #322E32",
"o c #3D3638",
"O c #3E3738",
"+ c #4A3F3F",
"@ c #554745",
"# c #614F4C",
"$ c #6C5752",
"% c #6C5753",
"& c #785F58",
"* c #846760",
"= c #8F6F67",
"- c #9A776D",
"; c #9B786D",
": c #A67F73",
"> c #A77F74",
", c #B2877B",
"< c #BE8F82",
"1 c #C99788",
"2 c #D59F8E",
"3 c #D6A08F",
"4 c #E1A896",
/* pixels */
"                                                            ",
"                                                            ",
"                                                            ",
"                                                            ",
"                                                            ",
"                                                            ",
"                                                            ",
"                                                            ",
"                                                            ",
"                                                            ",
"                                                            ",
"                                                            ",
"                       @;,:%   @=,,*O                       ",
"                     o,444441o=444444*                      ",
"                    X14444444444444444&                     ",
"                    *442*@%14444=@@:443X                    ",
"                    144%   o444,    ,44%                    ",
"                    443     ,43@    &44*                    ",
"                    443     ,44@    &44*                    ",
"                    ,44*    ,44@   X144#                    ",
"              @$%%%%:444;$$$,44;$%&1444$%%%%#.              ",
"             O4444444444444444444444444444443,              ",
"             @4444444444444444444444444444444,              ",
"             @44<*************************=44,              ",
"             @44;                         O44,              ",
"             @44;                         O44,              ",
"             @44;                         O44,              ",
"             @44;                         O44,              ",
"             @44:OOOOOOOOOOOOOOOOOOOOOOOOO@44,              ",
"             @4444444444444444444444444444444,              ",
"             @4444444444444444444444444444444,              ",
"              ;244211111111111111111111124421#              ",
"               @44,                     @44,                ",
"               @44,                     @44,                ",
"               @44,                     @44,                ",
"               @44,                     @44,                ",
"               @44,                     @44,                ",
"               @44,                     @44,                ",
"               @44,                     @44,                ",
"               @44,                     @44,                ",
"               @44,                     @44,                ",
"               @44,                     @44,                ",
"               @44,                     @44,                ",
"               @441*********************;44,                ",
"               @444444444444444444444444444,                ",
"               X444444444444444444444444444;                ",
"                +*************************&X                ",
"                                                            ",
"                                                            ",
"                                                            ",
"                                                            ",
"                                                            ",
"                                                            ",
"                                                            ",
"                                                            ",
"                                                            ",
"                                                            ",
"                                                            ",
"                                                            ",
"                                                            "
};
