/* XPM */
static char *_c75bd09980f4e7897ab8e7d003424a4BNEn6wcQSpCUpE5z[] = {
/* columns rows colors chars-per-pixel */
"60 60 71 1 ",
"  c #27272B",
". c #2C2A2E",
"X c #322E31",
"o c #363033",
"O c #3B3435",
"+ c #3F3638",
"@ c #403738",
"# c #443A3A",
"$ c #4A3D3D",
"% c #4E4040",
"& c #544342",
"* c #594745",
"= c #5C4946",
"- c #5E4A48",
"; c #644D4A",
": c #67504D",
"> c #69514D",
", c #6F5550",
"< c #715652",
"1 c #755954",
"2 c #7A5C56",
"3 c #7E5E58",
"4 c #82615B",
"5 c #8A665E",
"6 c #8C6760",
"7 c #8E6861",
"8 c #936B63",
"9 c #996F66",
"0 c #9A7067",
"q c #9D7269",
"w c #A2756B",
"e c #A6786D",
"r c #A9796F",
"t c #AD7D71",
"y c #B07E72",
"u c #B48175",
"i c #B88376",
"p c #B98477",
"a c #BB8578",
"s c #BD8679",
"d c #BE877A",
"f c #C0887A",
"g c #C38A7C",
"h c #C68C7E",
"j c #C78D7E",
"k c #C98E7F",
"l c #CA8E80",
"z c #CF9282",
"x c #D09283",
"c c #D19384",
"v c #D39485",
"b c #D59686",
"n c #D89787",
"m c #D79887",
"M c #D89887",
"N c #DB9989",
"B c #DD9A89",
"V c #DE9C8B",
"C c #DF9D8B",
"Z c #E09D8B",
"A c #E29E8C",
"S c #E59F8D",
"D c #E5A08E",
"F c #E6A18F",
"G c #E7A18F",
"H c #E8A28F",
"J c #E9A290",
"K c #EBA491",
"L c #ECA491",
"P c #ECA592",
"I c #EDA592",
/* pixels */
"                                                            ",
"                                                            ",
"                                                            ",
"                                                            ",
"                                                            ",
"                                                            ",
"                                                            ",
"                                                            ",
"                                                            ",
"                                                            ",
"                                                            ",
"                           <euee<                           ",
"                          7lAIIIF0                          ",
"                   =5w52 8SIIAzAIF6                         ",
"                  ;iNJIAjJIb8*;8bIl;                        ",
"                 3BIIIAGIIHr@  O8IJ5                        ",
"                 jICr13tIIG3    <NI8    ;-                  ",
"                <GKs&X ogHI2X  .4AIt>20aBC8                 ",
"                qGI3X   4MIw@ X=uIICzIIIIIs                 ",
"                qJG3    =zIz1:4tGIIIIIvsCKl=                ",
"                <IGu$  o&jIIkmIIKICgt71;qIb4                ",
"                 zIIy3<5tBIIIIGzu93;#. .>IFe                ",
"               . qAIINCIJIKMse5>&O      +AKg                ",
"              =>8dGIIIIAkt82=#         .OuIz>               ",
"            1ejGIKIKvuq4:%X           ..@8IB7               ",
"           -IIIINgr7<*+            .oO#1eNIHu               ",
"            AINw3;#.           .Xo+;8sIIIIISq               ",
"            pIk>            XXO&4tNKKIIKHIGu=               ",
"            8Im3        .XO@,qkIKKIKGBbpsIB8                ",
"            :IKw.   .XoO=6iGIIIISCmg8;O.>IKs                ",
"             vIu%.XO$2ebIIIIHANve2$     &zIk                ",
"             rKz3:8gIIIIKACMu5=.        @rIb3               ",
"             4IGGIIKIGCml0,+            o4IAw               ",
"             =GIIIHCbt3&                 =GId               ",
"              tMGIC8o                    $sIx;              ",
"               1wIB8                     +0IN5              ",
"                >IKp.                    X<IHu              ",
"                 zIj&                     &mIk              ",
"                 eIv2                     #uIv<             ",
"                 4IGw                   .#>uIA0             ",
"                 *GIgO               +=<7rfDIIt             ",
"                  fIz;         . o%>4quvIIIIGk1             ",
"                  0IN5        #-28tlAIIIIMsw5>              ",
"                  <KGu    o*,5wdmIIIKAjt81=                 ",
"                   NIj%$;30uxHIIIHvuq4;                     ",
"                   yIBttjCIKIIBfe7,=                        ",
"                   5IKIIIIGlt82;                            ",
"                   =IIIbaq5>                                ",
"                    5w81=                                   ",
"                                                            ",
"                                                            ",
"                                                            ",
"                                                            ",
"                                                            ",
"                                                            ",
"                                                            ",
"                                                            ",
"                                                            ",
"                                                            ",
"                                                            "
};
