/* XPM */
static char *_6a5465a0cc849ffe78b8a8076aaba24WghQnM3c2F4jQXPF[] = {
/* columns rows colors chars-per-pixel */
"60 60 25 1 ",
"  c #27272B",
". c #322F31",
"X c #332F32",
"o c #3D3638",
"O c #3E3738",
"+ c #493E3E",
"@ c #4A3F3F",
"# c #554745",
"$ c #604F4C",
"% c #614F4C",
"& c #6C5752",
"* c #785F59",
"= c #785F5A",
"- c #846760",
"; c #8F6F67",
": c #9A776D",
"> c #9B786D",
", c #A77F74",
"< c #A78074",
"1 c #B2877B",
"2 c #BD8F81",
"3 c #C99788",
"4 c #D59F8E",
"5 c #D6A08F",
"6 c #E1A896",
/* pixels */
"                                                            ",
"                                                            ",
"                                                            ",
"                                                            ",
"                                                            ",
"                                                            ",
"                                                            ",
"                                                            ",
"                                                            ",
"                                                            ",
"                                                            ",
"                                                            ",
"                                                            ",
"                                                            ",
"                                                            ",
"                       +&&&&&&&&&&&&%                       ",
"                      .46666666666666#                      ",
"                      #66666666666666,                      ",
"                      -661--------;662                      ",
"                      ,66#         566.                     ",
"                     o666.         166=                     ",
"              +;>>>>>3665>>>>>>>>>>2666<>>>>>&              ",
"              36666666666666666666666666666666+             ",
"              16666666666666666666666666666666o             ",
"              O%&566=&&&&&&&&&&&&&&&&&&&366-&#              ",
"                 266o                   266O                ",
"                 166+                   366                 ",
"                 >66%                   666                 ",
"                 ;66&                  X663                 ",
"                 -66=                  O661                 ",
"                 &66;                  #661                 ",
"                 %66:                  %66>                 ",
"                 #66<                  &66-                 ",
"                 o662                  -66-                 ",
"                 .663                  ;66&                 ",
"                  665                  >66#                 ",
"                  366.                 166#                 ",
"                  266o                 266O                 ",
"                  166+                 366                  ",
"                  >66$                 666                  ",
"                  ;66&                .663                  ",
"                  -66*                O661                  ",
"                  &66;                #661                  ",
"                  #661                ;66;                  ",
"                  .566>+OOOOOOOOOOOOO-666#                  ",
"                   *66666666666666666666>                   ",
"                    -6666666666666666661.                   ",
"                     O>11111111111111>#                     ",
"                                                            ",
"                                                            ",
"                                                            ",
"                                                            ",
"                                                            ",
"                                                            ",
"                                                            ",
"                                                            ",
"                                                            ",
"                                                            ",
"                                                            ",
"                                                            "
};
