/* XPM */
static char *_f0c4223b3174e898ab7884efbc6c7d2F75HKWrlg66gS4NC[] = {
/* columns rows colors chars-per-pixel */
"60 60 30 1 ",
"  c #27272B",
". c #322F31",
"X c #322E32",
"o c #332F32",
"O c #3D3638",
"+ c #3E3738",
"@ c #4A3F3E",
"# c #4A3F3F",
"$ c #554745",
"% c #604F4C",
"& c #614F4C",
"* c #614F4D",
"= c #6C5752",
"- c #6C5753",
"; c #785F58",
": c #785F59",
"> c #846760",
", c #8F6F66",
"< c #8F6F67",
"1 c #9A776D",
"2 c #9B786D",
"3 c #A67F73",
"4 c #A77F74",
"5 c #A78073",
"6 c #B2877B",
"7 c #BD8F81",
"8 c #C99788",
"9 c #D59F8E",
"0 c #D6A08F",
"q c #E1A896",
/* pixels */
"                                                            ",
"                                                            ",
"                                                            ",
"                                                            ",
"                                                            ",
"                                                            ",
"                                                            ",
"                                                            ",
"                                                            ",
"                                                            ",
"                                                            ",
"                                                            ",
"               X:4666666,$        $26666663=                ",
"              $9qqqqqqqqqq,     O6qqqqqqqqqq8O              ",
"             Oqqqqqqqqqqqqq,    7qqqqqqqqqqqq8X             ",
"             6qq8%$$$$$$2qqq$  =qqq>$$$$$$=8qq>             ",
"            oqqqO        2qq:  5qq;        $qq8             ",
"            +qq6         =qq2  6qq#         qqq             ",
"            +qq6         =qq2  6qq+         qqq             ",
"            +qq6         =qq2  6qq+         qqq             ",
"            +qq6         =qq2  6qq+         qqq             ",
"            +qq6         =qq2  6qq+         qqq             ",
"            Oqq6         =qq2  6qq+         qqq             ",
"            Oqq0         :qq,  4qq$        Oqq0             ",
"             8qq>       $8qq*  >qq8O      X5qq2             ",
"             ;qqq0888888qqq8   o9qqq8888889qqq+             ",
"              >qqqqqqqqqqq8O    #0qqqqqqqqqqq>              ",
"               =6qqqqqqq9>X      O29qqqqqq06$               ",
"                                                            ",
"                                                            ",
"                X*=====*$          $====--$X                ",
"              X2qqqqqqqqq8$      ;0qqqqqqqqq>               ",
"             X8qqqqqqqqqqqq%    >qqqqqqqqqqqq2              ",
"             ,qqq62222228qq0X  Oqqq62222226qqq=             ",
"             0qq;       X7qq;  2qq5        <qq6             ",
"            +qq7         =qq2  6q0$        oqq0             ",
"            +qq6         =qq2  6qq+         qqq             ",
"            +qq6         =qq2  6qq+         qqq             ",
"            +qq6         =qq2  6qqO         qqq             ",
"            +qq6         =qq2  6qq+         qqq             ",
"            +qq6         =qq2  6qqO         qqq             ",
"            +qq7         =qq,  6qq+         qqq             ",
"            X0qq$        8qq=  ,qq<        ;qq7             ",
"             >qqq2>>>>>>7qq8+  $qqq6>>>>>>5qqq-             ",
"             X8qqqqqqqqqqqq;    >qqqqqqqqqqqq6              ",
"              +2qqqqqqqqq0%      >qqqqqqqqqq<X              ",
"                O=>>>>>;$o        +*;>>>>;-o                ",
"                                                            ",
"                                                            ",
"                                                            ",
"                                                            ",
"                                                            ",
"                                                            ",
"                                                            ",
"                                                            ",
"                                                            ",
"                                                            ",
"                                                            ",
"                                                            ",
"                                                            "
};
